<svg width="1567" height="1098" viewBox="0 0 1567 1098" fill="none" xmlns="http://www.w3.org/2000/svg">
<g opacity="0.98">
<path d="M102.184 105.515L103.665 107.686L105.78 106.166L106.274 106.89L104.159 108.41L105.64 110.581L104.935 111.088L103.454 108.917L101.338 110.437L100.844 109.713L102.96 108.193L101.479 106.022L102.184 105.515Z" fill="#D9F1FF"/>
</g>
<g opacity="0.9">
<path d="M287.897 96.4932L284.446 94.6881L282.687 98.2307L281.537 97.629L283.295 94.0865L279.844 92.2814L280.43 91.1006L283.881 92.9056L285.64 89.363L286.79 89.9647L285.032 93.5073L288.483 95.3123L287.897 96.4932Z" fill="#D9F1FF"/>
</g>
<path d="M299.547 90.0763L297.103 88.4471L295.515 90.9559L294.7 90.4128L296.288 87.904L293.843 86.2748L294.373 85.4385L296.817 87.0677L298.404 84.5589L299.219 85.102L297.632 87.6108L300.076 89.2401L299.547 90.0763Z" fill="#D9F1FF"/>
<g opacity="0.72">
<path d="M512.168 8.89054L515.72 11.5391L518.3 7.89366L519.484 8.77652L516.904 12.422L520.455 15.0706L519.595 16.2857L516.043 13.6372L513.463 17.2826L512.279 16.3998L514.859 12.7543L511.308 10.1057L512.168 8.89054Z" fill="#D9F1FF"/>
</g>
<g opacity="0.78">
<path d="M668.537 57.8689L670.108 54.2401L673.949 53.9636C674.647 53.9164 674.948 53.0199 674.426 52.5415L671.558 49.894L672.501 46.0521C672.677 45.3533 671.942 44.7824 671.331 45.1458L667.985 47.136L664.716 45.0298C664.121 44.6464 663.367 45.1841 663.517 45.8939L664.323 49.7665L661.357 52.3059C660.814 52.7708 661.085 53.6705 661.784 53.7448L665.631 54.1534L667.074 57.8359C667.337 58.5081 668.256 58.5303 668.537 57.8689ZM665.731 50.2641L664.997 46.7542L667.96 48.666L670.99 46.8665L670.14 50.3527L672.734 52.739L669.249 52.9854L667.827 56.2694L666.519 52.9371L663.037 52.571L665.731 50.2641Z" fill="#FFE38E"/>
</g>
<g opacity="0.83" clip-path="url(#clip0_71_8412)">
<path d="M797.587 91.0431C800.261 86.0918 798.524 79.8711 793.699 77.1266C788.875 74.382 782.815 76.1658 780.141 81.1171C777.467 86.0684 779.205 92.2891 784.029 95.0336C788.853 97.7782 794.913 95.9944 797.587 91.0431ZM781.885 82.1097C784.023 78.1522 788.877 76.7236 792.732 78.9173C796.588 81.1109 797.98 86.0931 795.843 90.0505C793.705 94.008 788.851 95.4366 784.996 93.2429C781.14 91.0493 779.748 86.0671 781.885 82.1097Z" fill="#F5C4DA"/>
</g>
<g opacity="0.97" clip-path="url(#clip1_71_8412)">
<path d="M1029.04 106.927C1031.65 111.767 1037.57 113.511 1042.29 110.828C1047.01 108.145 1048.7 102.064 1046.09 97.2239C1043.48 92.3839 1037.55 90.6402 1032.84 93.3231C1028.12 96.0059 1026.42 102.087 1029.04 106.927ZM1044.39 98.1942C1046.47 102.063 1045.11 106.933 1041.34 109.077C1037.58 111.222 1032.83 109.825 1030.74 105.957C1028.65 102.088 1030.01 97.2179 1033.78 95.0735C1037.55 92.9292 1042.3 94.3257 1044.39 98.1942Z" fill="#F5C4DA"/>
</g>
<g opacity="0.96" clip-path="url(#clip2_71_8412)">
<path d="M1170.88 121.111C1169.25 115.969 1163.89 113.164 1158.88 114.834C1153.87 116.505 1151.14 122.012 1152.76 127.154C1154.39 132.296 1159.76 135.102 1164.77 133.431C1169.78 131.76 1172.51 126.254 1170.88 121.111ZM1154.58 126.55C1153.27 122.44 1155.46 118.029 1159.47 116.694C1163.47 115.359 1167.77 117.606 1169.07 121.716C1170.37 125.826 1168.18 130.236 1164.18 131.571C1160.17 132.907 1155.88 130.66 1154.58 126.55Z" fill="#F5C4DA"/>
</g>
<g opacity="0.8">
<path d="M1312.89 42.6516L1315.54 42.6992L1315.59 39.9732L1316.47 39.9891L1316.43 42.715L1319.08 42.7626L1319.07 43.6713L1316.41 43.6237L1316.36 46.3496L1315.48 46.3337L1315.53 43.6078L1312.87 43.5602L1312.89 42.6516Z" fill="#D9F1FF"/>
</g>
<g opacity="0.7">
<path d="M1434.09 17.795H1437.82V13.9705H1439.06V17.795H1442.79V19.0698H1439.06V22.8943H1437.82V19.0698H1434.09V17.795Z" fill="#D9F1FF"/>
</g>
<g opacity="0.87" clip-path="url(#clip3_71_8412)">
<path d="M86.4542 211.793L88.2161 209.635L90.8868 210.217C91.3716 210.325 91.7473 209.774 91.4827 209.343L90.0318 206.963L91.4066 204.534C91.6592 204.093 91.267 203.556 90.7817 203.681L88.122 204.367L86.295 202.275C85.9619 201.894 85.3462 202.11 85.3128 202.624L85.1251 205.425L82.6198 206.561C82.1609 206.769 82.1742 207.437 82.6368 207.627L85.1811 208.678L85.4633 211.477C85.5146 211.988 86.1368 212.188 86.4542 211.793ZM85.9901 206.047L86.1579 203.507L87.8138 205.405L90.2213 204.786L88.9784 206.992L90.292 209.138L87.8693 208.607L86.2749 210.56L86.018 208.027L83.7143 207.079L85.9901 206.047Z" fill="#FFE38E"/>
</g>
<g opacity="0.79" clip-path="url(#clip4_71_8412)">
<path d="M277.819 139.339C279.94 144.008 285.333 146.023 289.882 143.845C294.432 141.668 296.394 136.133 294.273 131.464C292.151 126.794 286.759 124.78 282.21 126.957C277.66 129.135 275.698 134.669 277.819 139.339ZM292.627 132.251C294.323 135.983 292.751 140.416 289.115 142.156C285.479 143.897 281.16 142.283 279.464 138.551C277.769 134.819 279.341 130.386 282.977 128.646C286.613 126.906 290.932 128.519 292.627 132.251Z" fill="#F5C4DA"/>
</g>
<g opacity="0.75">
<path d="M356.283 126.508L356.813 129.063L359.302 128.52L359.479 129.372L356.989 129.915L357.518 132.471L356.688 132.652L356.159 130.096L353.669 130.64L353.493 129.788L355.983 129.244L355.453 126.689L356.283 126.508Z" fill="#D9F1FF"/>
</g>
<g opacity="0.95">
<path d="M574.185 158.407L572.514 155.864L570.036 157.579L569.479 156.732L571.957 155.016L570.286 152.474L571.111 151.902L572.782 154.445L575.26 152.73L575.817 153.577L573.34 155.292L575.011 157.835L574.185 158.407Z" fill="#D9F1FF"/>
</g>
<g opacity="0.73" clip-path="url(#clip5_71_8412)">
<path d="M741.706 209.784C745.749 208.355 747.892 203.846 746.5 199.696C745.108 195.546 740.714 193.347 736.671 194.776C732.628 196.205 730.485 200.714 731.878 204.864C733.27 209.014 737.663 211.213 741.706 209.784ZM737.175 196.277C740.406 195.135 743.925 196.896 745.038 200.213C746.151 203.53 744.434 207.141 741.203 208.283C737.971 209.425 734.453 207.664 733.34 204.347C732.227 201.03 733.943 197.419 737.175 196.277Z" fill="#F5C4DA"/>
</g>
<g opacity="0.9">
<path d="M871.751 182.756L873.916 184.978L876.081 182.756L876.803 183.496L874.638 185.719L876.803 187.941L876.081 188.682L873.916 186.459L871.751 188.682L871.029 187.941L873.194 185.719L871.029 183.496L871.751 182.756Z" fill="#D9F1FF"/>
</g>
<g opacity="0.97">
<path d="M1029.86 196.699L1029.57 193.95L1026.9 194.239L1026.8 193.322L1029.48 193.033L1029.2 190.284L1030.09 190.188L1030.37 192.937L1033.05 192.648L1033.14 193.564L1030.47 193.853L1030.75 196.602L1029.86 196.699Z" fill="#D9F1FF"/>
</g>
<g opacity="0.99">
<path d="M1219.79 132.974L1223.46 130.711L1221.25 126.946L1222.48 126.192L1224.68 129.957L1228.35 127.695L1229.08 128.95L1225.41 131.212L1227.62 134.977L1226.4 135.731L1224.19 131.966L1220.52 134.229L1219.79 132.974Z" fill="#D9F1FF"/>
</g>
<g opacity="0.78">
<path d="M1272.22 150.672L1271.41 154.251L1274.9 155.077L1274.63 156.27L1271.14 155.444L1270.34 159.023L1269.18 158.747L1269.98 155.168L1266.49 154.342L1266.76 153.149L1270.25 153.975L1271.05 150.397L1272.22 150.672Z" fill="#D9F1FF"/>
</g>
<g opacity="0.99">
<path d="M1514.75 198.887L1517.38 198.265L1516.77 195.572L1517.64 195.365L1518.25 198.058L1520.87 197.436L1521.08 198.334L1518.45 198.956L1519.06 201.649L1518.18 201.857L1517.58 199.163L1514.95 199.785L1514.75 198.887Z" fill="#D9F1FF"/>
</g>
<g opacity="0.89">
<path d="M60.1749 314.06L60.6327 310.699L63.7242 309.544C64.2868 309.336 64.3281 308.527 63.7898 308.26L60.8261 306.779L60.7195 303.395C60.7032 302.778 59.9685 302.487 59.5505 302.933L57.2586 305.377L54.0901 304.437C53.5128 304.266 53.0175 304.89 53.3031 305.437L54.8543 308.423L53.0007 311.226C52.661 311.739 53.09 312.413 53.6816 312.305L56.9352 311.71L58.9657 314.387C59.336 314.875 60.096 314.671 60.1749 314.06ZM56.1251 308.491L54.7164 305.786L57.5894 306.64L59.6649 304.429L59.7671 307.498L62.4454 308.831L59.6389 309.876L59.2246 312.918L57.3857 310.497L54.4414 311.038L56.1251 308.491Z" fill="#FFE38E"/>
</g>
<g opacity="0.99" clip-path="url(#clip6_71_8412)">
<path d="M197.371 268.936C201.166 268.319 203.748 264.672 203.146 260.777C202.545 256.882 198.992 254.232 195.197 254.849C191.402 255.466 188.82 259.113 189.421 263.008C190.022 266.903 193.576 269.553 197.371 268.936ZM195.414 256.257C198.448 255.764 201.294 257.887 201.774 261C202.254 264.113 200.187 267.034 197.153 267.527C194.12 268.02 191.274 265.898 190.794 262.785C190.313 259.672 192.381 256.751 195.414 256.257Z" fill="#F5C4DA"/>
</g>
<g opacity="0.84">
<path d="M420.445 288.625L423.765 290.673L425.76 287.265L426.867 287.948L424.872 291.356L428.192 293.404L427.527 294.54L424.207 292.492L422.212 295.9L421.105 295.217L423.1 291.809L419.78 289.761L420.445 288.625Z" fill="#D9F1FF"/>
</g>
<g opacity="0.92">
<path d="M538.936 292.972C534.908 293.044 531.709 296.444 531.779 300.577C531.85 304.711 535.162 307.994 539.19 307.922C543.217 307.85 546.416 304.45 546.346 300.316C546.276 296.183 542.963 292.899 538.936 292.972ZM539.164 306.427C535.945 306.485 533.292 303.855 533.236 300.551C533.18 297.247 535.742 294.524 538.961 294.467C542.18 294.409 544.833 297.038 544.889 300.343C544.945 303.647 542.384 306.37 539.164 306.427Z" fill="#F5C4DA"/>
</g>
<g opacity="0.88">
<path d="M738.612 263.076L735.864 261.448L734.277 264.268L733.362 263.725L734.948 260.905L732.2 259.277L732.729 258.337L735.477 259.965L737.063 257.145L737.979 257.687L736.393 260.508L739.14 262.136L738.612 263.076Z" fill="#D9F1FF"/>
</g>
<g opacity="0.76" clip-path="url(#clip7_71_8412)">
<path d="M833.017 272.714C829.603 275.76 829.242 281.055 832.21 284.56C835.178 288.064 840.337 288.434 843.751 285.388C847.165 282.342 847.526 277.047 844.558 273.542C841.59 270.038 836.431 269.667 833.017 272.714ZM842.678 284.12C839.949 286.555 835.817 286.259 833.445 283.458C831.072 280.657 831.361 276.416 834.09 273.981C836.819 271.546 840.951 271.843 843.323 274.644C845.696 277.445 845.407 281.686 842.678 284.12Z" fill="#F5C4DA"/>
</g>
<g opacity="0.76" clip-path="url(#clip8_71_8412)">
<path d="M969.962 283.308L968.891 281.153L970.236 279.181C970.482 278.824 970.184 278.334 969.763 278.405L967.442 278.783L966.032 276.852C965.777 276.499 965.232 276.637 965.166 277.073L964.801 279.462L962.577 280.242C962.172 280.385 962.131 280.957 962.516 281.156L964.611 282.249L964.645 284.663C964.651 285.106 965.17 285.319 965.472 285.008L967.135 283.295L969.387 284.006C969.797 284.136 970.16 283.698 969.962 283.308ZM965.38 281.756L963.48 280.767L965.497 280.06L965.829 277.899L967.111 279.648L969.205 279.302L967.983 281.09L968.953 283.039L966.915 282.398L965.411 283.949L965.38 281.756Z" fill="#FFE38E"/>
</g>
<g opacity="0.94">
<path d="M1181.55 262.728L1178.39 260.929L1176.64 264.175L1175.58 263.575L1177.33 260.33L1174.17 258.531L1174.76 257.449L1177.92 259.248L1179.67 256.002L1180.73 256.602L1178.97 259.847L1182.14 261.647L1181.55 262.728Z" fill="#D9F1FF"/>
</g>
<g opacity="0.91" clip-path="url(#clip9_71_8412)">
<path d="M1335.11 322.074C1333.11 316.73 1327.29 314.068 1322.08 316.12C1316.87 318.171 1314.28 324.149 1316.28 329.494C1318.28 334.838 1324.1 337.5 1329.31 335.448C1334.52 333.397 1337.11 327.419 1335.11 322.074ZM1318.16 328.752C1316.57 324.48 1318.64 319.692 1322.8 318.052C1326.97 316.413 1331.63 318.544 1333.23 322.816C1334.83 327.088 1332.75 331.876 1328.59 333.516C1324.43 335.155 1319.76 333.024 1318.16 328.752Z" fill="#F5C4DA"/>
</g>
<g opacity="0.89">
<path d="M1472.05 274.555L1467.87 273.162L1466.51 277.448L1465.12 276.984L1466.48 272.698L1462.3 271.306L1462.76 269.877L1466.93 271.27L1468.29 266.984L1469.68 267.448L1468.32 271.734L1472.5 273.126L1472.05 274.555Z" fill="#D9F1FF"/>
</g>
<g opacity="0.74">
<path d="M12.1315 448.792L11.4417 445.149L7.89262 445.857L7.66267 444.643L11.2117 443.935L10.5218 440.292L11.7049 440.056L12.3947 443.699L15.9438 442.991L16.1737 444.205L12.6247 444.913L13.3145 448.556L12.1315 448.792Z" fill="#D9F1FF"/>
</g>
<g opacity="0.91">
<path d="M293.781 451.401L291.611 450.546L290.778 452.773L290.054 452.488L290.887 450.261L288.718 449.406L288.995 448.664L291.165 449.519L291.998 447.292L292.721 447.577L291.888 449.804L294.058 450.659L293.781 451.401Z" fill="#D9F1FF"/>
</g>
<g opacity="0.97">
<path d="M364.238 375.828L366.043 374.039L364.3 372.187L364.902 371.591L366.644 373.443L368.449 371.654L369.03 372.272L367.225 374.06L368.968 375.913L368.366 376.509L366.624 374.657L364.819 376.445L364.238 375.828Z" fill="#D9F1FF"/>
</g>
<g opacity="0.95">
<path d="M502.667 401.91L503.238 405.613L506.846 405.026L507.036 406.261L503.429 406.847L504 410.55L502.798 410.745L502.226 407.042L498.619 407.629L498.429 406.395L502.036 405.808L501.465 402.106L502.667 401.91Z" fill="#D9F1FF"/>
</g>
<g opacity="0.99">
<path d="M677.517 355.964C677.517 350.176 672.958 345.497 667.319 345.497C661.679 345.497 657.121 350.176 657.121 355.964C657.121 361.753 661.679 366.432 667.319 366.432C672.958 366.432 677.517 361.753 677.517 355.964ZM659.16 355.964C659.16 351.338 662.811 347.591 667.319 347.591C671.826 347.591 675.477 351.338 675.477 355.964C675.477 360.591 671.826 364.338 667.319 364.338C662.811 364.338 659.16 360.591 659.16 355.964Z" fill="#F5C4DA"/>
</g>
<path d="M795.043 379.481L791.711 380.146L792.359 383.566L791.248 383.787L790.601 380.367L787.269 381.032L787.053 379.892L790.385 379.228L789.737 375.808L790.848 375.586L791.495 379.006L794.827 378.341L795.043 379.481Z" fill="#D9F1FF"/>
<g opacity="0.78" clip-path="url(#clip10_71_8412)">
<path d="M989.212 425.559L991.592 427.756L990.822 430.928C990.68 431.504 991.29 431.976 991.79 431.677L994.553 430.038L997.257 431.782C997.747 432.102 998.373 431.654 998.25 431.069L997.58 427.858L1000.03 425.756C1000.48 425.373 1000.26 424.628 999.675 424.567L996.5 424.228L995.312 421.184C995.094 420.626 994.335 420.615 994.099 421.161L992.803 424.163L989.611 424.387C989.029 424.427 988.777 425.164 989.212 425.559ZM995.758 425.238L998.637 425.542L996.414 427.447L997.019 430.353L994.563 428.776L992.071 430.26L992.773 427.383L990.619 425.395L993.508 425.191L994.679 422.473L995.758 425.238Z" fill="#FFE38E"/>
</g>
<g opacity="0.95" clip-path="url(#clip11_71_8412)">
<path d="M1130.96 382.436C1127 377.223 1119.68 376.302 1114.6 380.374C1109.53 384.447 1108.63 391.953 1112.6 397.166C1116.56 402.379 1123.88 403.3 1128.95 399.227C1134.03 395.155 1134.93 387.649 1130.96 382.436ZM1114.43 395.693C1111.26 391.526 1111.98 385.515 1116.04 382.26C1120.1 379.005 1125.96 379.743 1129.13 383.909C1132.3 388.076 1131.58 394.087 1127.52 397.342C1123.46 400.597 1117.6 399.859 1114.43 395.693Z" fill="#F5C4DA"/>
</g>
<g opacity="0.87" clip-path="url(#clip12_71_8412)">
<path d="M1338.86 354.754C1334 349.938 1326.28 350.076 1321.59 355.063C1316.9 360.051 1317.03 367.975 1321.89 372.791C1326.75 377.607 1334.47 377.469 1339.16 372.482C1343.85 367.494 1343.72 359.57 1338.86 354.754ZM1323.59 370.987C1319.7 367.138 1319.59 360.791 1323.35 356.805C1327.1 352.819 1333.28 352.708 1337.16 356.558C1341.05 360.407 1341.15 366.754 1337.4 370.74C1333.65 374.726 1327.47 374.837 1323.59 370.987Z" fill="#F5C4DA"/>
</g>
<g opacity="0.85">
<path d="M1428.75 397.345L1431.08 399.823L1433.5 397.43L1434.27 398.256L1431.86 400.65L1434.19 403.128L1433.38 403.926L1431.05 401.448L1428.64 403.841L1427.86 403.015L1430.28 400.621L1427.94 398.143L1428.75 397.345Z" fill="#D9F1FF"/>
</g>
<g opacity="0.95" clip-path="url(#clip13_71_8412)">
<path d="M85.5659 478.599L87.1254 481.875L85.0481 484.811C84.6684 485.343 85.1053 486.089 85.741 485.994L89.2482 485.486L91.3241 488.435C91.6994 488.974 92.5244 488.78 92.6356 488.125L93.2466 484.535L96.6192 483.418C97.2336 483.215 97.3095 482.353 96.735 482.042L93.6052 480.339L93.6155 476.699C93.6176 476.032 92.8411 475.697 92.3774 476.158L89.8271 478.694L86.4519 477.562C85.836 477.355 85.2784 478.006 85.5659 478.599ZM92.4331 481.062L95.2719 482.603L92.2127 483.614L91.658 486.863L89.7703 484.192L86.6042 484.657L88.4924 481.995L87.081 479.03L90.1364 480.053L92.4424 477.755L92.4331 481.062Z" fill="#FFE38E"/>
</g>
<g opacity="0.77">
<path d="M168.618 473.965L168.098 470.599L164.819 471.132L164.646 470.01L167.925 469.477L167.406 466.111L168.499 465.933L169.018 469.299L172.298 468.766L172.471 469.888L169.191 470.421L169.711 473.787L168.618 473.965Z" fill="#D9F1FF"/>
</g>
<g opacity="0.86" clip-path="url(#clip14_71_8412)">
<path d="M367.685 454.879L371.121 452.757L374.542 454.865C375.162 455.251 375.936 454.673 375.77 453.949L374.869 449.952L377.895 447.266C378.448 446.779 378.155 445.846 377.426 445.782L373.433 445.431L371.878 441.648C371.594 440.959 370.643 440.956 370.359 441.65L368.801 445.429L364.812 445.776C364.082 445.839 363.791 446.768 364.341 447.258L367.37 449.952L366.463 453.958C366.297 454.689 367.064 455.269 367.685 454.879ZM369.708 446.711L371.117 443.283L372.526 446.714L376.14 447.035L373.4 449.476L374.22 453.084L371.118 451.167L368.009 453.088L368.829 449.461L366.085 447.026L369.708 446.711Z" fill="#FFE38E"/>
</g>
<g opacity="0.79">
<path d="M442.833 522.574L446.122 522.927L447.355 526.058C447.576 526.627 448.366 526.641 448.607 526.08L449.946 522.988L453.237 522.761C453.837 522.723 454.095 521.959 453.646 521.546L451.186 519.28L451.991 515.997C452.137 515.399 451.512 514.913 450.99 515.225L448.136 516.92L445.342 515.116C444.831 514.786 444.19 515.25 444.316 515.853L445.008 519.169L442.473 521.345C442.01 521.742 442.235 522.515 442.833 522.574ZM448.114 518.226L450.699 516.686L449.968 519.663L452.193 521.715L449.208 521.927L448.004 524.721L446.888 521.879L443.912 521.56L446.206 519.589L445.576 516.588L448.114 518.226Z" fill="#FFE38E"/>
</g>
<g opacity="0.86" clip-path="url(#clip15_71_8412)">
<path d="M737.501 527.113C739.739 530.161 743.948 530.768 746.918 528.471C749.887 526.175 750.479 521.854 748.241 518.806C746.004 515.758 741.794 515.151 738.825 517.448C735.855 519.745 735.264 524.065 737.501 527.113ZM747.167 519.637C748.956 522.073 748.482 525.533 746.109 527.369C743.735 529.205 740.364 528.719 738.575 526.282C736.787 523.846 737.26 520.386 739.634 518.55C742.008 516.715 745.379 517.201 747.167 519.637Z" fill="#F5C4DA"/>
</g>
<g opacity="0.91" clip-path="url(#clip16_71_8412)">
<path d="M883.686 544.49C890.312 547.956 898.397 545.259 901.773 538.458C905.149 531.657 902.522 523.359 895.896 519.894C889.27 516.428 881.185 519.125 877.809 525.926C874.433 532.727 877.06 541.025 883.686 544.49ZM894.675 522.353C899.971 525.123 902.075 531.769 899.377 537.205C896.678 542.641 890.203 544.8 884.907 542.031C879.611 539.261 877.507 532.615 880.205 527.179C882.904 521.743 889.379 519.584 894.675 522.353Z" fill="#F5C4DA"/>
</g>
<g opacity="0.93">
<path d="M1021 504.687L1017.68 505.048L1015.82 502.219C1015.48 501.703 1014.7 501.86 1014.58 502.467L1013.89 505.812L1010.68 506.747C1010.09 506.914 1010 507.724 1010.52 508.036L1013.42 509.745L1013.3 513.164C1013.27 513.787 1013.99 514.133 1014.44 513.712L1016.92 511.42L1020.05 512.601C1020.62 512.817 1021.16 512.221 1020.91 511.652L1019.55 508.522L1021.61 505.824C1021.99 505.332 1021.6 504.617 1021 504.687ZM1016.67 510.125L1014.43 512.204L1014.54 509.104L1011.92 507.555L1014.83 506.702L1015.45 503.68L1017.14 506.249L1020.14 505.923L1018.28 508.366L1019.52 511.197L1016.67 510.125Z" fill="#FFE38E"/>
</g>
<path d="M1217.52 519.486L1218.24 516.313L1215.14 515.581L1215.38 514.523L1218.47 515.256L1219.19 512.083L1220.22 512.327L1219.5 515.5L1222.6 516.232L1222.36 517.29L1219.27 516.557L1218.55 519.73L1217.52 519.486Z" fill="#D9F1FF"/>
<g opacity="0.96">
<path d="M1399.02 492.664L1398.98 490.203L1396.58 490.246L1396.57 489.426L1398.97 489.383L1398.93 486.922L1399.73 486.908L1399.77 489.369L1402.16 489.326L1402.18 490.146L1399.78 490.189L1399.82 492.65L1399.02 492.664Z" fill="#D9F1FF"/>
</g>
<path d="M1443.89 471.805L1441.65 474.863L1437.99 474.268C1437.32 474.157 1436.85 474.932 1437.24 475.497L1439.37 478.621L1437.67 482.019C1437.36 482.636 1437.93 483.335 1438.58 483.13L1442.14 482.006L1444.77 484.711C1445.25 485.203 1446.07 484.866 1446.08 484.166L1446.14 480.351L1449.46 478.626C1450.07 478.31 1450 477.405 1449.36 477.18L1445.84 475.941L1445.26 472.162C1445.15 471.472 1444.3 471.247 1443.89 471.805ZM1444.92 479.57L1444.87 483.029L1442.49 480.575L1439.27 481.59L1440.8 478.506L1438.87 475.688L1442.19 476.232L1444.22 473.465L1444.74 476.885L1447.94 478.003L1444.92 479.57Z" fill="#FFE38E"/>
<g opacity="0.86" clip-path="url(#clip17_71_8412)">
<path d="M80.4465 574.506L81.8516 577.458L79.98 580.103C79.6379 580.582 80.0315 581.255 80.6043 581.17L83.7642 580.712L85.6346 583.368C85.9727 583.854 86.7161 583.68 86.8163 583.089L87.3668 579.855L90.4054 578.848C90.9589 578.665 91.0274 577.889 90.5097 577.609L87.6898 576.074L87.6991 572.794C87.701 572.194 87.0014 571.892 86.5836 572.307L84.2858 574.592L81.2447 573.572C80.6899 573.386 80.1875 573.972 80.4465 574.506ZM86.6338 576.725L89.1915 578.114L86.4353 579.025L85.9354 581.952L84.2346 579.546L81.382 579.964L83.0832 577.566L81.8116 574.895L84.5645 575.816L86.6422 573.746L86.6338 576.725Z" fill="#FFE38E"/>
</g>
<g opacity="0.96">
<path d="M236.02 643.955L235.041 646.115L232.734 646.24C232.314 646.261 232.125 646.795 232.433 647.088L234.127 648.707L233.521 651.002C233.409 651.419 233.844 651.769 234.214 651.558L236.242 650.4L238.181 651.699C238.535 651.935 238.992 651.621 238.91 651.193L238.465 648.861L240.27 647.37C240.601 647.097 240.448 646.554 240.029 646.502L237.725 646.216L236.897 643.991C236.746 643.585 236.195 643.562 236.02 643.955ZM237.626 648.548L238.03 650.661L236.272 649.482L234.436 650.529L234.982 648.447L233.45 646.988L235.543 646.877L236.43 644.923L237.18 646.936L239.265 647.193L237.626 648.548Z" fill="#FFE38E"/>
</g>
<g opacity="0.79">
<path d="M399.624 646.764L399.355 649.019L401.552 649.296L401.462 650.047L399.265 649.771L398.995 652.026L398.262 651.933L398.532 649.678L396.335 649.401L396.425 648.65L398.622 648.927L398.892 646.672L399.624 646.764Z" fill="#D9F1FF"/>
</g>
<g opacity="0.8" clip-path="url(#clip18_71_8412)">
<path d="M480.004 574.749C485.877 578.663 493.707 576.955 497.521 570.927C501.335 564.899 499.671 556.862 493.798 552.947C487.924 549.032 480.094 550.741 476.28 556.769C472.466 562.797 474.13 570.834 480.004 574.749ZM492.418 555.127C497.112 558.256 498.445 564.693 495.397 569.511C492.348 574.329 486.077 575.697 481.383 572.568C476.689 569.44 475.356 563.003 478.404 558.185C481.453 553.367 487.724 551.998 492.418 555.127Z" fill="#F5C4DA"/>
</g>
<g opacity="0.94" clip-path="url(#clip19_71_8412)">
<path d="M768.751 614.25C767.516 609.519 762.792 606.719 758.183 607.987C753.573 609.255 750.846 614.103 752.081 618.834C753.316 623.565 758.04 626.365 762.649 625.097C767.259 623.829 769.986 618.981 768.751 614.25ZM753.748 618.376C752.761 614.594 754.945 610.711 758.629 609.698C762.313 608.685 766.097 610.927 767.084 614.708C768.071 618.489 765.887 622.373 762.203 623.386C758.518 624.399 754.735 622.157 753.748 618.376Z" fill="#F5C4DA"/>
</g>
<g opacity="0.81" clip-path="url(#clip20_71_8412)">
<path d="M821.408 585.934C824.025 580.663 821.989 574.232 816.853 571.546C811.718 568.861 805.452 570.95 802.836 576.221C800.219 581.492 802.255 587.923 807.39 590.609C812.526 593.294 818.792 591.205 821.408 585.934ZM804.693 577.192C806.784 572.979 811.803 571.306 815.907 573.452C820.012 575.599 821.642 580.75 819.551 584.962C817.46 589.175 812.441 590.849 808.337 588.702C804.232 586.556 802.602 581.405 804.693 577.192Z" fill="#F5C4DA"/>
</g>
<g opacity="0.96">
<path d="M1049.43 593.759L1052.24 593.757L1053.56 596.295C1053.79 596.757 1054.46 596.697 1054.62 596.199L1055.48 593.46L1058.25 592.967C1058.75 592.88 1058.91 592.21 1058.49 591.901L1056.21 590.208L1056.61 587.356C1056.68 586.837 1056.11 586.482 1055.69 586.794L1053.43 588.489L1050.9 587.218C1050.44 586.985 1049.94 587.436 1050.1 587.935L1050.97 590.679L1049.02 592.752C1048.66 593.13 1048.92 593.764 1049.43 593.759ZM1053.52 589.597L1055.57 588.058L1055.21 590.644L1057.27 592.177L1054.77 592.629L1053.99 595.104L1052.8 592.8L1050.25 592.802L1052.02 590.925L1051.23 588.442L1053.52 589.597Z" fill="#FFE38E"/>
</g>
<g opacity="0.93">
<path d="M1150.42 625.244L1153.63 626.439L1154.1 629.89C1154.19 630.517 1154.97 630.733 1155.35 630.233L1157.44 627.48L1160.79 628.096C1161.4 628.211 1161.85 627.513 1161.5 626.984L1159.59 624.085L1161.19 621.004C1161.48 620.443 1160.98 619.796 1160.38 619.975L1157.11 620.941L1154.75 618.419C1154.32 617.957 1153.56 618.257 1153.54 618.893L1153.43 622.391L1150.36 623.921C1149.8 624.2 1149.84 625.031 1150.42 625.244ZM1156.77 622.243L1159.73 621.364L1158.27 624.157L1160 626.782L1156.96 626.229L1155.08 628.718L1154.65 625.586L1151.75 624.504L1154.52 623.119L1154.62 619.952L1156.77 622.243Z" fill="#FFE38E"/>
</g>
<g opacity="0.85">
<path d="M1349.98 663.319L1347.16 662.705L1346.56 665.594L1345.62 665.389L1346.22 662.5L1343.41 661.886L1343.61 660.923L1346.42 661.537L1347.02 658.648L1347.96 658.853L1347.36 661.742L1350.17 662.356L1349.98 663.319Z" fill="#D9F1FF"/>
</g>
<g opacity="0.81" clip-path="url(#clip21_71_8412)">
<path d="M1501.61 637.336C1500.59 641.532 1503.07 645.771 1507.16 646.817C1511.25 647.863 1515.38 645.317 1516.4 641.12C1517.42 636.923 1514.94 632.685 1510.85 631.638C1506.76 630.592 1502.63 633.139 1501.61 637.336ZM1514.92 640.741C1514.1 644.096 1510.8 646.135 1507.53 645.299C1504.26 644.463 1502.27 641.068 1503.09 637.714C1503.9 634.36 1507.21 632.32 1510.48 633.156C1513.75 633.993 1515.73 637.387 1514.92 640.741Z" fill="#F5C4DA"/>
</g>
<g opacity="0.81" clip-path="url(#clip22_71_8412)">
<path d="M87.9434 735.071C86.5911 741.083 90.2326 747.064 96.0899 748.452C101.947 749.84 107.775 746.103 109.127 740.091C110.479 734.079 106.838 728.098 100.98 726.71C95.1232 725.322 89.2956 729.059 87.9434 735.071ZM107.009 739.589C105.928 744.394 101.26 747.387 96.5789 746.278C91.8973 745.169 88.9809 740.378 90.0617 735.573C91.1425 730.768 95.8098 727.775 100.491 728.884C105.173 729.993 108.089 734.784 107.009 739.589Z" fill="#F5C4DA"/>
</g>
<g opacity="0.99">
<path d="M265.871 660.134L268.899 662.831L268.002 666.822C267.836 667.547 268.611 668.124 269.231 667.738L272.656 665.623L276.08 667.747C276.702 668.137 277.476 667.562 277.31 666.831L276.402 662.825L279.426 660.138C279.977 659.648 279.686 658.719 278.955 658.656L274.971 658.303L273.418 654.516C273.134 653.822 272.183 653.825 271.899 654.514L270.339 658.304L266.346 658.656C265.617 658.719 265.317 659.648 265.871 660.134ZM274.064 659.584L277.676 659.901L274.932 662.336L275.752 665.963L272.643 664.042L269.553 665.958L270.371 662.337L267.631 659.896L271.244 659.576L272.653 656.144L274.064 659.584Z" fill="#FFE38E"/>
</g>
<g opacity="0.84">
<path d="M288.608 728.099L291.717 729.451L292.011 732.887C292.062 733.511 292.828 733.767 293.227 733.292L295.434 730.683L298.715 731.47C299.312 731.616 299.786 730.949 299.467 730.408L297.725 727.442L299.465 724.482C299.782 723.943 299.314 723.276 298.712 723.421L295.432 724.202L293.228 721.584C292.825 721.105 292.064 721.361 292.012 721.989L291.723 725.44L288.614 726.789C288.047 727.034 288.042 727.858 288.608 728.099ZM295.031 725.471L298.004 724.76L296.423 727.443L297.999 730.129L295.023 729.421L293.033 731.78L292.771 728.662L289.957 727.439L292.77 726.217L293.029 723.093L295.031 725.471Z" fill="#FFE38E"/>
</g>
<g opacity="0.88" clip-path="url(#clip23_71_8412)">
<path d="M546.18 686.266C550.124 690.923 556.979 691.415 561.516 687.367C566.052 683.319 566.532 676.283 562.588 671.627C558.644 666.97 551.789 666.478 547.252 670.526C542.715 674.574 542.236 681.61 546.18 686.266ZM560.947 673.091C564.099 676.813 563.715 682.448 560.089 685.683C556.463 688.918 550.973 688.524 547.821 684.803C544.669 681.081 545.052 675.446 548.679 672.21C552.305 668.975 557.795 669.369 560.947 673.091Z" fill="#F5C4DA"/>
</g>
<g opacity="0.92">
<path d="M694.84 683.182L698.07 684.193L698.712 687.579C698.826 688.194 699.614 688.366 699.962 687.852L701.892 685.02L705.235 685.45C705.843 685.532 706.247 684.818 705.875 684.314L703.839 681.55L705.269 678.42C705.53 677.85 704.996 677.237 704.412 677.446L701.23 678.574L698.771 676.208C698.321 675.774 697.591 676.11 697.602 676.74L697.667 680.204L694.712 681.878C694.173 682.184 694.252 683.003 694.84 683.182ZM700.96 679.879L703.844 678.853L702.546 681.691L704.386 684.193L701.354 683.809L699.616 686.368L699.037 683.296L696.114 682.381L698.788 680.864L698.726 677.729L700.96 679.879Z" fill="#FFE38E"/>
</g>
<g opacity="0.78" clip-path="url(#clip24_71_8412)">
<path d="M900.105 714.635C895.508 713.101 890.585 715.676 889.091 720.395C887.597 725.113 890.106 730.167 894.703 731.7C899.3 733.233 904.224 730.658 905.717 725.94C907.211 721.221 904.703 716.168 900.105 714.635ZM895.243 729.993C891.569 728.768 889.56 724.721 890.753 720.949C891.947 717.178 895.891 715.116 899.565 716.341C903.24 717.567 905.249 721.614 904.055 725.385C902.861 729.157 898.918 731.219 895.243 729.993Z" fill="#F5C4DA"/>
</g>
<g clip-path="url(#clip25_71_8412)">
<path d="M1072.1 677.747L1069.42 680.506L1065.8 679.372C1065.15 679.163 1064.56 679.876 1064.88 680.503L1066.6 683.966L1064.42 687.147C1064.02 687.724 1064.5 688.513 1065.18 688.4L1068.93 687.784L1071.2 690.895C1071.62 691.462 1072.49 691.241 1072.6 690.536L1073.19 686.695L1076.78 685.439C1077.43 685.209 1077.49 684.286 1076.88 683.966L1073.49 682.202L1073.43 678.305C1073.42 677.594 1072.59 677.242 1072.1 677.747ZM1072.07 685.731L1071.54 689.213L1069.48 686.391L1066.08 686.946L1068.06 684.057L1066.5 680.933L1069.78 681.966L1072.21 679.469L1072.26 682.996L1075.33 684.589L1072.07 685.731Z" fill="#FFE38E"/>
</g>
<g opacity="0.72" clip-path="url(#clip26_71_8412)">
<path d="M1097.39 725.18C1098.52 721.145 1096.25 716.947 1092.32 715.79C1088.39 714.633 1084.3 716.96 1083.17 720.995C1082.05 725.031 1084.31 729.228 1088.24 730.385C1092.18 731.542 1096.27 729.216 1097.39 725.18ZM1084.6 721.414C1085.5 718.188 1088.77 716.325 1091.91 717.25C1095.06 718.175 1096.87 721.536 1095.97 724.762C1095.07 727.987 1091.79 729.851 1088.65 728.926C1085.51 728.001 1083.69 724.639 1084.6 721.414Z" fill="#F5C4DA"/>
</g>
<g opacity="0.94">
<path d="M1263.55 761.376L1263.55 758.74L1265.8 757.509C1266.21 757.287 1266.16 756.66 1265.72 756.514L1263.28 755.704L1262.85 753.113C1262.77 752.641 1262.17 752.499 1261.9 752.888L1260.39 755.022L1257.86 754.65C1257.4 754.583 1257.08 755.118 1257.36 755.507L1258.86 757.631L1257.73 759.992C1257.53 760.425 1257.93 760.895 1258.37 760.746L1260.81 759.928L1262.65 761.761C1262.99 762.096 1263.55 761.855 1263.55 761.376ZM1259.85 757.542L1258.48 755.618L1260.78 755.956L1262.14 754.026L1262.55 756.375L1264.75 757.103L1262.7 758.218L1262.7 760.603L1261.03 758.945L1258.82 759.687L1259.85 757.542Z" fill="#FFE38E"/>
</g>
<g opacity="0.97" clip-path="url(#clip27_71_8412)">
<path d="M1429.91 749.691C1433.1 744.017 1431.21 736.783 1425.69 733.507C1420.16 730.232 1413.11 732.17 1409.92 737.844C1406.73 743.518 1408.62 750.752 1414.14 754.028C1419.67 757.303 1426.72 755.365 1429.91 749.691ZM1411.92 739.029C1414.47 734.494 1420.11 732.941 1424.53 735.559C1428.95 738.178 1430.46 743.972 1427.91 748.507C1425.36 753.041 1419.72 754.594 1415.3 751.976C1410.88 749.357 1409.37 743.564 1411.92 739.029Z" fill="#F5C4DA"/>
</g>
<g opacity="0.96">
<path d="M73.9796 860.149L75.2896 862.906L77.9755 861.562L78.4121 862.481L75.7262 863.825L77.0362 866.582L76.1409 867.03L74.831 864.273L72.1451 865.618L71.7084 864.699L74.3943 863.354L73.0843 860.598L73.9796 860.149Z" fill="#D9F1FF"/>
</g>
<g opacity="0.86">
<path d="M203.482 856.921L199.389 856.774L199.246 860.975L197.882 860.926L198.025 856.725L193.932 856.578L193.98 855.178L198.073 855.325L198.216 851.124L199.58 851.173L199.437 855.374L203.529 855.521L203.482 856.921Z" fill="#D9F1FF"/>
</g>
<g opacity="0.79">
<path d="M324.919 810.342L326.799 807.683L329.953 808.137C330.526 808.222 330.919 807.55 330.577 807.071L328.7 804.422L330.107 801.48C330.366 800.945 329.867 800.353 329.313 800.54L326.271 801.559L323.979 799.278C323.562 798.863 322.862 799.165 322.864 799.765L322.867 803.042L320.042 804.573C319.524 804.853 319.593 805.629 320.146 805.813L323.191 806.822L323.741 810.057C323.841 810.647 324.581 810.827 324.919 810.342ZM323.923 803.693L323.917 800.723L325.995 802.793L328.748 801.872L327.476 804.543L329.175 806.932L326.314 806.516L324.613 808.922L324.113 805.995L321.357 805.084L323.923 803.693Z" fill="#FFE38E"/>
</g>
<g opacity="0.76">
<path d="M463.965 847.695C459.885 847.402 456.356 850.55 456.071 854.738C455.786 858.926 458.853 862.548 462.933 862.841C467.014 863.134 470.542 859.985 470.828 855.797C471.113 851.61 468.045 847.988 463.965 847.695ZM463.037 861.326C459.775 861.092 457.319 858.192 457.547 854.844C457.775 851.497 460.601 848.975 463.862 849.209C467.123 849.444 469.58 852.344 469.352 855.692C469.124 859.039 466.298 861.56 463.037 861.326Z" fill="#F5C4DA"/>
</g>
<g opacity="0.95" clip-path="url(#clip28_71_8412)">
<path d="M728.903 850.829C733.674 855.085 740.882 854.568 745.03 849.671C749.177 844.775 748.673 837.376 743.902 833.12C739.131 828.863 731.923 829.381 727.776 834.277C723.629 839.174 724.133 846.572 728.903 850.829ZM742.402 834.891C746.215 838.293 746.619 844.218 743.304 848.132C739.989 852.046 734.216 852.46 730.403 849.058C726.59 845.656 726.186 839.73 729.501 835.817C732.816 831.903 738.589 831.489 742.402 834.891Z" fill="#F5C4DA"/>
</g>
<g opacity="0.76" clip-path="url(#clip29_71_8412)">
<path d="M892.106 858.211L890.307 855.851L891.488 853.126C891.704 852.632 891.229 852.109 890.734 852.297L887.999 853.32L885.84 851.314C885.448 850.946 884.817 851.247 884.837 851.793L884.944 854.786L882.418 856.275C881.959 856.546 882.041 857.252 882.554 857.401L885.354 858.222L885.951 861.149C886.061 861.686 886.741 861.819 887.037 861.367L888.665 858.881L891.566 859.199C892.096 859.257 892.436 858.637 892.106 858.211ZM886.176 857.435L883.637 856.694L885.928 855.345L885.833 852.636L887.795 854.452L890.263 853.523L889.188 855.994L890.816 858.129L888.19 857.843L886.719 860.095L886.176 857.435Z" fill="#FFE38E"/>
</g>
<g opacity="0.86">
<path d="M1012.25 828.179L1012.99 825.717L1010.59 824.964L1010.83 824.143L1013.23 824.896L1013.97 822.433L1014.77 822.684L1014.03 825.147L1016.43 825.9L1016.19 826.72L1013.79 825.968L1013.05 828.43L1012.25 828.179Z" fill="#D9F1FF"/>
</g>
<g opacity="0.71" clip-path="url(#clip30_71_8412)">
<path d="M1208.01 855.421C1205.95 860.398 1208.21 866.128 1213.06 868.241C1217.9 870.353 1223.49 868.038 1225.55 863.061C1227.6 858.084 1225.35 852.354 1220.5 850.241C1215.65 848.129 1210.07 850.444 1208.01 855.421ZM1223.79 862.297C1222.15 866.275 1217.68 868.129 1213.8 866.441C1209.92 864.752 1208.12 860.163 1209.76 856.185C1211.41 852.207 1215.88 850.353 1219.76 852.041C1223.63 853.73 1225.44 858.319 1223.79 862.297Z" fill="#F5C4DA"/>
</g>
<g opacity="0.92">
<path d="M1333.98 824.812C1333.91 820.614 1330.54 817.281 1326.46 817.354C1322.37 817.427 1319.12 820.879 1319.19 825.077C1319.26 829.274 1322.62 832.608 1326.71 832.535C1330.8 832.462 1334.05 829.009 1333.98 824.812ZM1320.67 825.05C1320.61 821.695 1323.21 818.931 1326.48 818.872C1329.75 818.814 1332.44 821.483 1332.5 824.838C1332.56 828.193 1329.96 830.958 1326.69 831.017C1323.42 831.075 1320.73 828.405 1320.67 825.05Z" fill="#F5C4DA"/>
</g>
<g opacity="0.93">
<path d="M1499.44 807.407L1501.69 808.156L1502.42 805.851L1503.17 806.1L1502.44 808.405L1504.68 809.154L1504.44 809.922L1502.19 809.173L1501.46 811.478L1500.71 811.229L1501.44 808.924L1499.2 808.175L1499.44 807.407Z" fill="#D9F1FF"/>
</g>
<g opacity="0.93" clip-path="url(#clip31_71_8412)">
<path d="M10.9917 901.652C6.14295 902.986 3.27381 908.086 4.57303 913.063C5.87224 918.04 10.8417 920.985 15.6905 919.651C20.5392 918.318 23.4083 913.217 22.1091 908.24C20.8099 903.264 15.8404 900.319 10.9917 901.652ZM15.2206 917.851C11.3451 918.917 7.36507 916.559 6.32664 912.581C5.2882 908.603 7.58609 904.518 11.4616 903.452C15.337 902.386 19.3171 904.745 20.3555 908.723C21.394 912.7 19.0961 916.785 15.2206 917.851Z" fill="#F5C4DA"/>
</g>
<g opacity="0.84">
<path d="M280.21 993.206L278.382 989.36L274.635 991.235L274.026 989.954L277.773 988.078L275.945 984.232L277.194 983.607L279.022 987.453L282.769 985.577L283.378 986.859L279.631 988.734L281.459 992.58L280.21 993.206Z" fill="#D9F1FF"/>
</g>
<g opacity="0.71">
<path d="M368.926 939.144L368.323 942.65L371.739 943.268L371.538 944.436L368.123 943.818L367.52 947.324L366.382 947.118L366.984 943.612L363.569 942.994L363.77 941.826L367.185 942.444L367.787 938.938L368.926 939.144Z" fill="#D9F1FF"/>
</g>
<g clip-path="url(#clip32_71_8412)">
<path d="M450.893 908.619L452.62 912.413L450.177 915.742C449.731 916.345 450.218 917.211 450.95 917.115L454.987 916.604L457.314 920.033C457.734 920.659 458.685 920.454 458.826 919.704L459.597 915.594L463.492 914.381C464.202 914.159 464.306 913.172 463.652 912.803L460.091 910.783L460.174 906.603C460.189 905.837 459.304 905.436 458.763 905.956L455.785 908.816L451.931 907.447C451.228 907.197 450.575 907.932 450.893 908.619ZM458.731 911.589L461.961 913.417L458.428 914.515L457.728 918.235L455.612 915.129L451.967 915.597L454.187 912.579L452.625 909.146L456.113 910.383L458.806 907.792L458.731 911.589Z" fill="#FFE38E"/>
</g>
<g opacity="0.94" clip-path="url(#clip33_71_8412)">
<path d="M728.335 922.482L725.981 920.152L726.877 916.94C727.042 916.357 726.435 915.853 725.914 916.14L723.036 917.713L720.335 915.833C719.845 915.488 719.19 915.922 719.295 916.525L719.868 919.829L717.292 921.885C716.823 922.26 717.022 923.03 717.614 923.113L720.845 923.575L721.953 926.728C722.156 927.306 722.931 927.345 723.19 926.796L724.619 923.777L727.887 923.666C728.483 923.646 728.766 922.903 728.335 922.482ZM721.637 922.571L718.708 922.155L721.045 920.291L720.528 917.301L722.981 919.001L725.578 917.576L724.761 920.49L726.892 922.599L723.934 922.702L722.644 925.435L721.637 922.571Z" fill="#FFE38E"/>
</g>
<g opacity="0.99" clip-path="url(#clip34_71_8412)">
<path d="M902.192 964.681L901.348 962.307L902.987 960.438C903.286 960.1 903.038 959.553 902.593 959.571L900.14 959.66L898.917 957.473C898.696 957.074 898.114 957.146 897.991 957.589L897.317 960.019L894.913 960.538C894.475 960.632 894.362 961.22 894.736 961.477L896.773 962.884L896.509 965.392C896.461 965.852 896.972 966.141 897.324 965.857L899.261 964.299L901.508 965.33C901.918 965.518 902.348 965.112 902.192 964.681ZM897.632 962.473L895.784 961.2L897.964 960.73L898.576 958.532L899.688 960.513L901.904 960.429L900.414 962.123L901.178 964.271L899.144 963.339L897.392 964.752L897.632 962.473Z" fill="#FFE38E"/>
</g>
<g opacity="0.8">
<path d="M1011.99 902.856L1009.77 906.24L1005.84 905.816C1005.12 905.736 1004.66 906.588 1005.11 907.168L1007.55 910.371L1005.93 914.085C1005.63 914.76 1006.27 915.472 1006.95 915.216L1010.69 913.815L1013.63 916.545C1014.16 917.042 1015.02 916.636 1014.99 915.89L1014.85 911.825L1018.29 909.799C1018.92 909.428 1018.8 908.468 1018.11 908.265L1014.29 907.147L1013.47 903.157C1013.32 902.429 1012.39 902.239 1011.99 902.856ZM1013.51 911.063L1013.64 914.749L1010.98 912.272L1007.6 913.538L1009.06 910.167L1006.85 907.278L1010.42 907.666L1012.43 904.604L1013.18 908.215L1016.64 909.223L1013.51 911.063Z" fill="#FFE38E"/>
</g>
<g opacity="0.88">
<path d="M1126.21 991.739L1126.57 988.729L1129.32 987.647C1129.82 987.453 1129.84 986.729 1129.36 986.499L1126.69 985.223L1126.54 982.201C1126.52 981.651 1125.85 981.402 1125.49 981.807L1123.48 984.028L1120.63 983.239C1120.11 983.095 1119.68 983.66 1119.94 984.144L1121.38 986.788L1119.76 989.322C1119.47 989.786 1119.86 990.381 1120.39 990.275L1123.28 989.692L1125.14 992.05C1125.48 992.481 1126.15 992.286 1126.21 991.739ZM1122.51 986.828L1121.21 984.434L1123.79 985.151L1125.61 983.142L1125.75 985.883L1128.16 987.031L1125.67 988.01L1125.35 990.734L1123.67 988.6L1121.05 989.131L1122.51 986.828Z" fill="#FFE38E"/>
</g>
<g opacity="0.94" clip-path="url(#clip35_71_8412)">
<path d="M1286.18 929.085C1287.84 935.016 1293.85 938.435 1299.63 936.734C1305.4 935.034 1308.74 928.865 1307.08 922.934C1305.42 917.003 1299.41 913.584 1293.63 915.284C1287.85 916.985 1284.52 923.154 1286.18 929.085ZM1304.99 923.549C1306.31 928.29 1303.64 933.23 1299.03 934.589C1294.41 935.949 1289.59 933.21 1288.27 928.47C1286.94 923.729 1289.61 918.789 1294.23 917.429C1298.85 916.07 1303.66 918.809 1304.99 923.549Z" fill="#F5C4DA"/>
</g>
<g clip-path="url(#clip36_71_8412)">
<path d="M1493.03 949.618C1499.32 951.968 1506.26 948.649 1508.55 942.193C1510.84 935.738 1507.6 928.621 1501.31 926.271C1495.02 923.922 1488.09 927.241 1485.8 933.696C1483.51 940.151 1486.75 947.268 1493.03 949.618ZM1500.49 928.606C1505.51 930.484 1508.1 936.184 1506.27 941.344C1504.44 946.503 1498.89 949.161 1493.86 947.283C1488.84 945.405 1486.25 939.705 1488.08 934.546C1489.91 929.386 1495.46 926.728 1500.49 928.606Z" fill="#F5C4DA"/>
</g>
<g opacity="0.94" clip-path="url(#clip37_71_8412)">
<path d="M13.8833 980.837L15.4075 982.634L14.58 984.848C14.428 985.249 14.8267 985.644 15.2125 985.475L17.3424 984.545L19.1387 986.046C19.4644 986.321 19.9532 986.056 19.9154 985.623L19.7095 983.251L21.6543 981.96C22.0085 981.725 21.9145 981.168 21.5006 981.072L19.2444 980.54L18.6511 978.24C18.5426 977.819 17.9972 977.742 17.7805 978.114L16.5886 980.157L14.2717 980.029C13.8489 980.005 13.604 980.512 13.8833 980.837ZM18.6237 981.199L20.6695 981.679L18.9052 982.849L19.0904 984.996L17.4588 983.638L15.5368 984.48L16.2901 982.472L14.9107 980.846L17.0078 980.961L18.0847 979.111L18.6237 981.199Z" fill="#FFE38E"/>
</g>
<g opacity="0.99">
<path d="M162.516 1007.43L162.257 1004.91L159.799 1005.17L159.713 1004.33L162.171 1004.07L161.913 1001.54L162.732 1001.45L162.991 1003.98L165.449 1003.71L165.535 1004.55L163.077 1004.82L163.335 1007.34L162.516 1007.43Z" fill="#D9F1FF"/>
</g>
<g opacity="0.76" clip-path="url(#clip38_71_8412)">
<path d="M402.98 1000.48C399.17 1002.47 397.659 1007.25 399.6 1011.16C401.542 1015.07 406.191 1016.62 410.001 1014.63C413.811 1012.63 415.321 1007.86 413.38 1003.95C411.439 1000.04 406.79 998.49 402.98 1000.48ZM409.299 1013.21C406.253 1014.8 402.53 1013.56 400.978 1010.44C399.427 1007.31 400.636 1003.49 403.682 1001.9C406.727 1000.3 410.45 1001.55 412.002 1004.67C413.554 1007.8 412.344 1011.62 409.299 1013.21Z" fill="#F5C4DA"/>
</g>
<g opacity="0.97" clip-path="url(#clip39_71_8412)">
<path d="M620.241 1001.29L617.014 1002.98L614.06 1000.86C613.525 1000.47 612.792 1000.94 612.897 1001.6L613.464 1005.27L610.571 1007.49C610.043 1007.89 610.25 1008.75 610.903 1008.86L614.48 1009.43L615.649 1012.94C615.863 1013.58 616.72 1013.65 617.018 1013.04L618.655 1009.73L622.271 1009.68C622.934 1009.67 623.253 1008.85 622.787 1008.37L620.222 1005.75L621.286 1002.2C621.481 1001.55 620.825 1000.98 620.241 1001.29ZM617.916 1008.52L616.435 1011.52L615.376 1008.33L612.139 1007.81L614.759 1005.79L614.241 1002.48L616.919 1004.41L619.839 1002.88L618.877 1006.1L621.201 1008.47L617.916 1008.52Z" fill="#FFE38E"/>
</g>
<g opacity="0.77" clip-path="url(#clip40_71_8412)">
<path d="M712.185 1064.96C705 1063.26 697.85 1067.85 696.191 1075.22C694.533 1082.6 699 1089.94 706.186 1091.64C713.371 1093.34 720.521 1088.76 722.18 1081.38C723.839 1074 719.371 1066.67 712.185 1064.96ZM706.786 1088.97C701.042 1087.61 697.464 1081.73 698.79 1075.84C700.116 1069.94 705.842 1066.27 711.585 1067.63C717.329 1068.99 720.907 1074.87 719.581 1080.76C718.255 1086.66 712.529 1090.33 706.786 1088.97Z" fill="#F5C4DA"/>
</g>
<g opacity="0.83">
<path d="M805.755 1080.3L802.629 1080.81L800.733 1078.22C800.39 1077.75 799.657 1077.94 799.569 1078.52L799.078 1081.72L796.089 1082.77C795.543 1082.96 795.489 1083.73 796.004 1084L798.826 1085.47L798.874 1088.71C798.883 1089.3 799.578 1089.59 799.986 1089.17L802.216 1086.87L805.235 1087.83C805.788 1088.01 806.269 1087.41 806.007 1086.89L804.566 1084L806.385 1081.34C806.717 1080.86 806.323 1080.2 805.755 1080.3ZM801.921 1085.66L799.902 1087.74L799.86 1084.8L797.307 1083.47L800.016 1082.52L800.455 1079.63L802.173 1081.97L805.002 1081.51L803.357 1083.91L804.664 1086.53L801.921 1085.66Z" fill="#FFE38E"/>
</g>
<g opacity="0.83" clip-path="url(#clip41_71_8412)">
<path d="M1074.68 1036.44C1077.71 1040.72 1083.51 1041.66 1087.68 1038.56C1091.84 1035.45 1092.76 1029.49 1089.73 1025.22C1086.71 1020.95 1080.9 1020.01 1076.74 1023.11C1072.58 1026.21 1071.66 1032.17 1074.68 1036.44ZM1088.23 1026.34C1090.64 1029.76 1089.91 1034.53 1086.58 1037.01C1083.26 1039.49 1078.6 1038.74 1076.19 1035.32C1073.77 1031.91 1074.51 1027.13 1077.83 1024.65C1081.16 1022.17 1085.81 1022.93 1088.23 1026.34Z" fill="#F5C4DA"/>
</g>
<g opacity="0.89">
<path d="M1136.54 1026.45L1134.45 1027.49L1135.47 1029.64L1134.77 1029.99L1133.75 1027.84L1131.67 1028.89L1131.33 1028.17L1133.41 1027.13L1132.4 1024.98L1133.09 1024.63L1134.11 1026.78L1136.2 1025.73L1136.54 1026.45Z" fill="#D9F1FF"/>
</g>
<g opacity="0.99">
<path d="M1277.85 1054.93L1277.39 1050.42L1272.98 1050.89L1272.83 1049.38L1277.23 1048.91L1276.77 1044.39L1278.24 1044.23L1278.7 1048.75L1283.1 1048.28L1283.26 1049.78L1278.85 1050.26L1279.32 1054.78L1277.85 1054.93Z" fill="#D9F1FF"/>
</g>
<g opacity="0.82">
<path d="M1552.73 1070.71L1556.19 1071.08L1557.49 1074.38C1557.73 1074.98 1558.56 1074.99 1558.81 1074.4L1560.22 1071.14L1563.69 1070.9C1564.32 1070.86 1564.59 1070.06 1564.12 1069.62L1561.53 1067.24L1562.38 1063.78C1562.53 1063.15 1561.87 1062.64 1561.32 1062.97L1558.32 1064.75L1555.37 1062.85C1554.83 1062.5 1554.16 1062.99 1554.29 1063.63L1555.02 1067.12L1552.35 1069.41C1551.86 1069.83 1552.1 1070.64 1552.73 1070.71ZM1558.29 1066.13L1561.02 1064.51L1560.25 1067.64L1562.59 1069.8L1559.44 1070.03L1558.18 1072.97L1557 1069.97L1553.87 1069.64L1556.28 1067.56L1555.62 1064.4L1558.29 1066.13Z" fill="#FFE38E"/>
</g>
<defs>
<clipPath id="clip0_71_8412">
<rect width="24.4219" height="24.0873" fill="white" transform="matrix(-0.475189 0.879883 -0.869175 -0.494504 805.135 81.2915)"/>
</clipPath>
<clipPath id="clip1_71_8412">
<rect width="23.8731" height="23.546" fill="white" transform="matrix(-0.475189 -0.879883 0.869175 -0.494504 1033 118.4)"/>
</clipPath>
<clipPath id="clip2_71_8412">
<rect width="23.4078" height="22.9198" fill="white" transform="matrix(0.301805 0.95337 -0.948638 0.316364 1169.16 109.349)"/>
</clipPath>
<clipPath id="clip3_71_8412">
<rect width="13.7936" height="13.6713" fill="white" transform="matrix(-0.563556 0.826078 -0.812041 -0.5836 97 205.469)"/>
</clipPath>
<clipPath id="clip4_71_8412">
<rect width="22.2589" height="21.8894" fill="white" transform="matrix(-0.413633 -0.910444 0.902011 -0.431713 280.777 150.259)"/>
</clipPath>
<clipPath id="clip5_71_8412">
<rect width="18.6107" height="18.9965" fill="white" transform="matrix(-0.942851 0.333215 -0.318056 -0.948072 750.983 208.184)"/>
</clipPath>
<clipPath id="clip6_71_8412">
<rect width="16.6863" height="17.1048" fill="white" transform="matrix(-0.987043 0.160457 -0.152508 -0.988302 205.823 269.006)"/>
</clipPath>
<clipPath id="clip7_71_8412">
<rect width="19.8586" height="19.9307" fill="white" transform="matrix(0.746173 -0.665752 0.646292 0.76309 824.534 278.057)"/>
</clipPath>
<clipPath id="clip8_71_8412">
<rect width="11.8631" height="11.7285" fill="white" transform="matrix(0.520016 0.854157 -0.841753 0.539863 968.63 272.626)"/>
</clipPath>
<clipPath id="clip9_71_8412">
<rect width="24.7639" height="24.2893" fill="white" transform="matrix(0.350299 0.936638 -0.930392 0.366567 1332.66 309.735)"/>
</clipPath>
<clipPath id="clip10_71_8412">
<rect width="15.9638" height="16.0788" fill="white" transform="matrix(-0.791013 -0.611799 0.591809 -0.806078 995.967 438.438)"/>
</clipPath>
<clipPath id="clip11_71_8412">
<rect width="28.4323" height="28.2537" fill="white" transform="matrix(0.605689 0.795701 -0.780145 0.625598 1124.19 369.651)"/>
</clipPath>
<clipPath id="clip12_71_8412">
<rect width="29.6923" height="29.7193" fill="white" transform="matrix(0.710236 0.703964 -0.685244 0.728314 1330.01 342.499)"/>
</clipPath>
<clipPath id="clip13_71_8412">
<rect width="17.8903" height="17.673" fill="white" transform="matrix(-0.50521 -0.862996 0.851153 -0.524918 87.2998 494.734)"/>
</clipPath>
<clipPath id="clip14_71_8412">
<rect width="19.9898" height="20.1513" fill="white" transform="matrix(-0.801647 0.597798 -0.577763 -0.816205 385.191 451.29)"/>
</clipPath>
<clipPath id="clip15_71_8412">
<rect width="16.4104" height="16.293" fill="white" transform="matrix(-0.591809 -0.806078 0.791013 -0.611799 741.283 534.558)"/>
</clipPath>
<clipPath id="clip16_71_8412">
<rect width="32.4524" height="32.9529" fill="white" transform="matrix(-0.886137 -0.463423 0.444652 -0.895704 896.844 554.47)"/>
</clipPath>
<clipPath id="clip17_71_8412">
<rect width="16.119" height="15.9232" fill="white" transform="matrix(-0.50521 -0.862996 0.851153 -0.524918 82.0088 589.044)"/>
</clipPath>
<clipPath id="clip18_71_8412">
<rect width="30.6324" height="30.9585" fill="white" transform="matrix(-0.832098 -0.554628 0.534678 -0.845056 491.369 585.424)"/>
</clipPath>
<clipPath id="clip19_71_8412">
<rect width="21.2201" height="20.7469" fill="white" transform="matrix(0.252595 0.967572 -0.964201 0.265174 767.738 603.525)"/>
</clipPath>
<clipPath id="clip20_71_8412">
<rect width="25.5385" height="25.1506" fill="white" transform="matrix(-0.444652 0.895704 -0.886137 -0.463423 828.943 575.468)"/>
</clipPath>
<clipPath id="clip21_71_8412">
<rect width="18.7439" height="18.3178" fill="white" transform="matrix(0.236054 -0.97174 0.968781 0.247917 1497.92 646.064)"/>
</clipPath>
<clipPath id="clip22_71_8412">
<rect width="26.743" height="26.1243" fill="white" transform="matrix(0.21945 -0.975624 0.973055 0.230575 82.8906 747.615)"/>
</clipPath>
<clipPath id="clip23_71_8412">
<rect width="26.4833" height="26.3875" fill="white" transform="matrix(-0.646292 -0.76309 0.746173 -0.665752 553.097 697.835)"/>
</clipPath>
<clipPath id="clip24_71_8412">
<rect width="21.0323" height="21.4801" fill="white" transform="matrix(0.948638 0.316364 -0.301805 0.95337 890.67 709.601)"/>
</clipPath>
<clipPath id="clip25_71_8412">
<rect width="19.0573" height="18.9714" fill="white" transform="matrix(0.632935 -0.774205 0.757721 0.652579 1056.81 685.164)"/>
</clipPath>
<clipPath id="clip26_71_8412">
<rect width="18.1845" height="17.7873" fill="white" transform="matrix(-0.269071 0.96312 -0.959315 -0.282337 1101.26 716.842)"/>
</clipPath>
<clipPath id="clip27_71_8412">
<rect width="28.2527" height="27.8873" fill="white" transform="matrix(-0.490267 0.871572 -0.860295 -0.509797 1438.84 738.564)"/>
</clipPath>
<clipPath id="clip28_71_8412">
<rect width="27.7477" height="27.8484" fill="white" transform="matrix(-0.746173 -0.665752 0.646292 -0.76309 737.756 861.836)"/>
</clipPath>
<clipPath id="clip29_71_8412">
<rect width="14.6262" height="14.5996" fill="white" transform="matrix(0.672451 0.740142 -0.722426 0.691448 888.025 845.545)"/>
</clipPath>
<clipPath id="clip30_71_8412">
<rect width="23.3736" height="22.9546" fill="white" transform="matrix(0.38217 -0.924092 0.916771 0.399414 1201.79 865.457)"/>
</clipPath>
<clipPath id="clip31_71_8412">
<rect width="21.8246" height="22.3224" fill="white" transform="matrix(0.964201 -0.265174 0.252595 0.967572 0 902.746)"/>
</clipPath>
<clipPath id="clip32_71_8412">
<rect width="20.5554" height="20.2895" fill="white" transform="matrix(-0.490267 -0.871572 0.860295 -0.509797 452.569 927.183)"/>
</clipPath>
<clipPath id="clip33_71_8412">
<rect width="16.3291" height="16.4178" fill="white" transform="matrix(0.769046 0.639193 -0.619399 0.785076 721.884 909.082)"/>
</clipPath>
<clipPath id="clip34_71_8412">
<rect width="12.4269" height="12.2206" fill="white" transform="matrix(0.413633 0.910444 -0.902011 0.431713 902.135 953.431)"/>
</clipPath>
<clipPath id="clip35_71_8412">
<rect width="26.7257" height="26.1419" fill="white" transform="matrix(-0.269071 -0.96312 0.959315 -0.282337 1287.69 942.57)"/>
</clipPath>
<clipPath id="clip36_71_8412">
<rect width="29.1382" height="29.7253" fill="white" transform="matrix(-0.936768 -0.349952 0.334222 -0.942495 1505.85 957.051)"/>
</clipPath>
<clipPath id="clip37_71_8412">
<rect width="11.6146" height="11.6252" fill="white" transform="matrix(-0.710236 -0.703964 0.685244 -0.728314 17.6367 990.72)"/>
</clipPath>
<clipPath id="clip38_71_8412">
<rect width="18.6601" height="18.9479" fill="white" transform="matrix(0.886137 -0.463423 0.444652 0.895704 394.01 1003.39)"/>
</clipPath>
<clipPath id="clip39_71_8412">
<rect width="18.0303" height="18.2373" fill="white" transform="matrix(0.841753 -0.539863 0.520016 0.854157 604.242 1003.39)"/>
</clipPath>
<clipPath id="clip40_71_8412">
<rect width="32.0494" height="32.8084" fill="white" transform="matrix(0.973055 0.230575 -0.21945 0.975624 697.192 1058.6)"/>
</clipPath>
<clipPath id="clip41_71_8412">
<rect width="22.7108" height="22.5288" fill="white" transform="matrix(-0.577763 -0.816205 0.801647 -0.597798 1079.74 1046.84)"/>
</clipPath>
</defs>
</svg>
