<svg width="70" height="70" viewBox="0 0 70 70" fill="none" xmlns="http://www.w3.org/2000/svg">
<path d="M48.125 6.5625H21.875C17.8152 6.56684 13.9229 8.18151 11.0522 11.0522C8.18151 13.9229 6.56684 17.8152 6.5625 21.875V48.125C6.56684 52.1848 8.18151 56.0771 11.0522 58.9478C13.9229 61.8185 17.8152 63.4332 21.875 63.4375H48.125C52.1848 63.4332 56.0771 61.8185 58.9478 58.9478C61.8185 56.0771 63.4332 52.1848 63.4375 48.125V21.875C63.4332 17.8152 61.8185 13.9229 58.9478 11.0522C56.0771 8.18151 52.1848 6.56684 48.125 6.5625ZM35 48.125C32.4041 48.125 29.8665 47.3552 27.7081 45.913C25.5497 44.4708 23.8675 42.421 22.8741 40.0227C21.8807 37.6244 21.6208 34.9854 22.1272 32.4394C22.6336 29.8934 23.8837 27.5548 25.7192 25.7192C27.5548 23.8837 29.8934 22.6336 32.4394 22.1272C34.9854 21.6208 37.6244 21.8807 40.0227 22.8741C42.421 23.8675 44.4708 25.5497 45.913 27.7081C47.3552 29.8665 48.125 32.4041 48.125 35C48.1214 38.4799 46.7374 41.8162 44.2768 44.2768C41.8162 46.7374 38.4799 48.1214 35 48.125ZM51.4062 21.875C50.7573 21.875 50.1229 21.6826 49.5833 21.322C49.0437 20.9615 48.6231 20.449 48.3748 19.8494C48.1264 19.2499 48.0614 18.5901 48.188 17.9536C48.3147 17.3171 48.6272 16.7324 49.0861 16.2736C49.5449 15.8147 50.1296 15.5022 50.7661 15.3755C51.4026 15.2489 52.0624 15.3139 52.6619 15.5623C53.2615 15.8106 53.774 16.2312 54.1345 16.7708C54.4951 17.3104 54.6875 17.9448 54.6875 18.5938C54.6875 19.464 54.3418 20.2986 53.7264 20.9139C53.1111 21.5293 52.2765 21.875 51.4062 21.875ZM43.75 35C43.75 36.7306 43.2368 38.4223 42.2754 39.8612C41.3139 41.3002 39.9473 42.4217 38.3485 43.0839C36.7496 43.7462 34.9903 43.9195 33.293 43.5819C31.5956 43.2443 30.0365 42.4109 28.8128 41.1872C27.5891 39.9635 26.7557 38.4044 26.4181 36.707C26.0805 35.0097 26.2538 33.2504 26.9161 31.6515C27.5783 30.0527 28.6998 28.6861 30.1388 27.7246C31.5777 26.7632 33.2694 26.25 35 26.25C37.3206 26.25 39.5462 27.1719 41.1872 28.8128C42.8281 30.4538 43.75 32.6794 43.75 35Z" fill="#6B85B2"/>
</svg>
