<svg width="1566" height="1196" viewBox="0 0 1566 1196" fill="none" xmlns="http://www.w3.org/2000/svg">
<g clip-path="url(#clip0_121_688)">
<mask id="mask0_121_688" style="mask-type:luminance" maskUnits="userSpaceOnUse" x="-1" y="0" width="1567" height="1196">
<path d="M1566 0H-1V1196H1566V0Z" fill="white"/>
</mask>
<g mask="url(#mask0_121_688)">
<path d="M1518 1006.25H-67V170.527H1518V1006.25Z" fill="white"/>
<path d="M4.4537 72.9695C58.8282 72.9695 102.907 116.61 102.907 170.444C102.907 224.278 58.8282 267.919 4.4537 267.919C-49.9208 267.919 -94 224.278 -94 170.444C-94 116.61 -49.9208 72.9695 4.4537 72.9695Z" fill="white"/>
<path d="M356.467 108.909C410.842 108.909 454.921 152.55 454.921 206.384C454.921 260.218 410.842 303.859 356.467 303.859C302.093 303.859 258.014 260.218 258.014 206.384C258.014 152.55 302.093 108.909 356.467 108.909Z" fill="white"/>
<path d="M533.574 -0.00125122C618.326 -0.00125122 687.03 68.0201 687.03 151.929C687.03 235.837 618.326 303.859 533.574 303.859C448.823 303.859 380.118 235.837 380.118 151.929C380.118 68.0201 448.823 -0.00125122 533.574 -0.00125122Z" fill="white"/>
<path d="M724.981 87.1268C809.733 87.1268 878.437 155.148 878.437 239.057C878.437 322.965 809.733 390.987 724.981 390.987C640.23 390.987 571.525 322.965 571.525 239.057C571.525 155.148 640.23 87.1268 724.981 87.1268Z" fill="white"/>
<path d="M908.137 132.87C970.713 132.87 1021.44 200.891 1021.44 284.8C1021.44 368.708 970.713 436.73 908.137 436.73C845.561 436.73 794.833 368.708 794.833 284.8C794.833 200.891 845.561 132.87 908.137 132.87Z" fill="white"/>
<path d="M1096.79 72.9694C1181.55 72.9694 1250.25 140.991 1250.25 224.899C1250.25 308.808 1181.55 376.829 1096.79 376.829C1012.04 376.829 943.339 308.808 943.339 224.899C943.339 140.991 1012.04 72.9694 1096.79 72.9694Z" fill="white"/>
<path d="M1286 119.801C1346.45 119.801 1395.46 187.822 1395.46 271.731C1395.46 355.639 1346.45 423.661 1286 423.661C1225.55 423.661 1176.55 355.639 1176.55 271.731C1176.55 187.822 1225.55 119.801 1286 119.801Z" fill="white"/>
<path fill-rule="evenodd" clip-rule="evenodd" d="M1518.17 62.3553C1497.43 51.8562 1474.34 46 1450 46C1359.97 46 1287 126.141 1287 225C1287 323.859 1359.97 404 1450 404C1474.34 404 1497.43 398.144 1518.17 387.645V62.3553Z" fill="white"/>
<path d="M103.458 132.87C157.832 132.87 201.911 176.511 201.911 230.344C201.911 284.178 157.832 327.819 103.458 327.819C49.0831 327.819 5.00391 284.178 5.00391 230.344C5.00391 176.511 49.0831 132.87 103.458 132.87Z" fill="white"/>
<path d="M216.761 119.801C271.136 119.801 315.215 163.442 315.215 217.275C315.215 271.109 271.136 314.75 216.761 314.75C162.387 314.75 118.308 271.109 118.308 217.275C118.308 163.442 162.387 119.801 216.761 119.801Z" fill="white"/>
<path d="M685.852 45.6071C723.976 45.6071 754.882 81.5161 754.882 125.812C754.882 170.108 723.976 206.017 685.852 206.017C647.728 206.017 616.822 170.108 616.822 125.812C616.822 81.5161 647.728 45.6071 685.852 45.6071Z" fill="white"/>
<path d="M387.344 87.2815C399.193 87.2815 408.799 96.4348 408.799 107.726C408.799 119.017 399.193 128.17 387.344 128.17C375.494 128.17 365.889 119.017 365.889 107.726C365.889 96.4348 375.494 87.2815 387.344 87.2815Z" fill="white"/>
<path d="M754.882 68.41C766.731 68.41 776.337 77.5632 776.337 88.8544C776.337 100.145 766.731 109.299 754.882 109.299C743.033 109.299 733.427 100.145 733.427 88.8544C733.427 77.5632 743.033 68.41 754.882 68.41Z" fill="white"/>
<mask id="mask1_121_688" style="mask-type:luminance" maskUnits="userSpaceOnUse" x="167" y="253" width="21" height="25">
<path d="M176.468 277.607L187.054 266.734L178.172 253.776L167.586 264.649L176.468 277.607Z" fill="white"/>
</mask>
<g mask="url(#mask1_121_688)">
<g opacity="0.95">
<path d="M181.02 271.09C183.459 268.585 183.776 264.146 181.73 261.16C179.683 258.174 176.057 257.786 173.618 260.292C171.179 262.797 170.862 267.236 172.909 270.221C174.955 273.207 178.581 273.595 181.02 271.09ZM174.358 261.372C176.308 259.369 179.212 259.68 180.848 262.067C182.483 264.453 182.229 268.008 180.28 270.011C178.33 272.014 175.427 271.703 173.791 269.315C172.155 266.93 172.409 263.375 174.358 261.372Z" fill="#F5C4DA"/>
</g>
</g>
<g opacity="0.83">
<path d="M368.109 163.856L371.9 163.12L371.3 158.479L372.564 158.234L373.164 162.875L376.955 162.141L377.155 163.688L373.364 164.422L373.965 169.063L372.701 169.308L372.101 164.667L368.309 165.403L368.109 163.856Z" fill="#D9F1FF"/>
</g>
<g opacity="0.94">
<path d="M709.95 221.106L712.484 216.327L708.581 213.225L709.426 211.632L713.329 214.734L715.864 209.956L717.165 210.991L714.63 215.768L718.534 218.872L717.689 220.464L713.785 217.361L711.251 222.14L709.95 221.106Z" fill="#D9F1FF"/>
</g>
<g opacity="0.81">
<path d="M842.688 188.03L844.747 191.498L847.581 188.978L848.267 190.135L845.433 192.655L847.492 196.123L846.547 196.964L844.489 193.495L841.655 196.015L840.969 194.859L843.802 192.338L841.744 188.87L842.688 188.03Z" fill="#D9F1FF"/>
</g>
<mask id="mask2_121_688" style="mask-type:luminance" maskUnits="userSpaceOnUse" x="1154" y="213" width="26" height="32">
<path d="M1154.46 221.676L1161.22 244.415L1179.8 236.138L1173.03 213.399L1154.46 221.676Z" fill="white"/>
</mask>
<g mask="url(#mask2_121_688)">
<g opacity="0.96">
<path d="M1162.68 222.679L1163.72 227.41L1160.81 230.735C1160.28 231.336 1160.6 232.435 1161.32 232.478L1165.31 232.732L1166.99 237.165C1167.29 237.976 1168.24 237.938 1168.5 237.103L1169.93 232.528L1173.89 231.943C1174.61 231.837 1174.88 230.72 1174.31 230.16L1171.2 227.089L1171.98 222.292C1172.12 221.413 1171.33 220.767 1170.72 221.253L1167.37 223.926L1163.88 221.545C1163.24 221.111 1162.49 221.821 1162.68 222.679ZM1169.76 227.735L1172.57 230.513L1168.98 231.042L1167.69 235.181L1166.16 231.162L1162.56 230.941L1165.2 227.928L1164.26 223.647L1167.43 225.799L1170.46 223.375L1169.76 227.735Z" fill="#FFE38E"/>
</g>
</g>
<mask id="mask3_121_688" style="mask-type:luminance" maskUnits="userSpaceOnUse" x="1281" y="260" width="14" height="16">
<path d="M1293.74 275.887L1294.17 260.86L1281.89 260.335L1281.47 275.362L1293.74 275.887Z" fill="white"/>
</mask>
<g mask="url(#mask3_121_688)">
<g opacity="0.88">
<path d="M1292.93 268.33C1293.03 264.867 1290.82 261.971 1287.99 261.851C1285.16 261.729 1282.8 264.43 1282.7 267.893C1282.6 271.355 1284.81 274.251 1287.64 274.372C1290.46 274.494 1292.83 271.792 1292.93 268.33ZM1283.72 267.936C1283.8 265.169 1285.7 263.006 1287.96 263.102C1290.22 263.198 1291.98 265.518 1291.91 268.286C1291.83 271.054 1289.93 273.217 1287.67 273.12C1285.41 273.023 1283.64 270.704 1283.72 267.936Z" fill="#F5C4DA"/>
</g>
</g>
<mask id="mask4_121_688" style="mask-type:luminance" maskUnits="userSpaceOnUse" x="1497" y="207" width="27" height="33">
<path d="M1501.14 207.484L1497.17 235.017L1519.66 239.872L1523.63 212.339L1501.14 207.484Z" fill="white"/>
</mask>
<g mask="url(#mask4_121_688)">
<g opacity="0.74">
<path d="M1501.02 221.655C1500.11 227.999 1503.56 234.032 1508.74 235.149C1513.92 236.268 1518.85 232.045 1519.77 225.7C1520.68 219.356 1517.23 213.324 1512.05 212.206C1506.86 211.087 1501.94 215.311 1501.02 221.655ZM1517.89 225.296C1517.16 230.367 1513.21 233.75 1509.07 232.855C1504.93 231.962 1502.17 227.13 1502.9 222.059C1503.63 216.989 1507.57 213.607 1511.72 214.5C1515.86 215.394 1518.62 220.226 1517.89 225.296Z" fill="#F5C4DA"/>
</g>
</g>
<g opacity="0.85">
<path d="M118.376 334.876L122.623 334.33L122.177 329.131L123.593 328.949L124.039 334.148L128.286 333.602L128.435 335.334L124.188 335.881L124.634 341.08L123.218 341.262L122.772 336.064L118.525 336.61L118.376 334.876Z" fill="#D9F1FF"/>
</g>
<path d="M266.168 400.983L261.295 403.893L263.672 409.858L262.048 410.828L259.671 404.863L254.798 407.772L254.006 405.783L258.879 402.874L256.502 396.909L258.126 395.938L260.503 401.904L265.376 398.995L266.168 400.983Z" fill="#D9F1FF"/>
<mask id="mask5_121_688" style="mask-type:luminance" maskUnits="userSpaceOnUse" x="469" y="304" width="30" height="37">
<path d="M498.613 322.246L484.092 304.471L469.571 322.246L484.092 340.022L498.613 322.246Z" fill="white"/>
</mask>
<g mask="url(#mask5_121_688)">
<g opacity="0.77">
<path d="M490.143 314.839C486.797 310.745 481.388 310.745 478.043 314.839C474.697 318.935 474.697 325.557 478.043 329.653C481.388 333.749 486.797 333.749 490.143 329.653C493.489 325.557 493.489 318.935 490.143 314.839ZM479.253 328.172C476.578 324.898 476.578 319.595 479.253 316.322C481.927 313.047 486.259 313.047 488.933 316.322C491.607 319.595 491.607 324.898 488.933 328.172C486.259 331.445 481.927 331.445 479.253 328.172Z" fill="#F5C4DA"/>
</g>
</g>
<mask id="mask6_121_688" style="mask-type:luminance" maskUnits="userSpaceOnUse" x="700" y="288" width="28" height="34">
<path d="M712.48 321.605L727.395 306.82L715.317 288.562L700.402 303.347L712.48 321.605Z" fill="white"/>
</mask>
<g mask="url(#mask6_121_688)">
<g opacity="0.94">
<path d="M718.93 312.691C722.367 309.284 722.895 303.13 720.112 298.923C717.329 294.717 712.302 294.069 708.865 297.476C705.428 300.883 704.9 307.038 707.683 311.244C710.466 315.451 715.493 316.098 718.93 312.691ZM709.872 298.998C712.618 296.275 716.645 296.793 718.869 300.156C721.094 303.518 720.67 308.447 717.923 311.169C715.177 313.893 711.15 313.375 708.926 310.012C706.702 306.65 707.125 301.72 709.872 298.998Z" fill="#F5C4DA"/>
</g>
</g>
<mask id="mask7_121_688" style="mask-type:luminance" maskUnits="userSpaceOnUse" x="929" y="402" width="25" height="30">
<path d="M944.852 402.506L929.432 412.543L937.631 431.42L953.051 421.383L944.852 402.506Z" fill="white"/>
</mask>
<g mask="url(#mask7_121_688)">
<g opacity="0.75">
<path d="M945.146 411.435L941.893 413.129L939.158 410.419C938.663 409.924 937.917 410.409 937.976 411.189L938.285 415.487L935.322 417.83C934.78 418.252 934.925 419.268 935.553 419.445L938.998 420.41L939.904 424.584C940.069 425.344 940.899 425.49 941.23 424.81L943.042 421.108L946.566 421.347C947.212 421.391 947.577 420.467 947.155 419.874L944.832 416.613L946.104 412.577C946.336 411.841 945.735 411.123 945.146 411.435ZM942.403 419.637L940.763 422.995L939.943 419.211L936.826 418.333L939.511 416.203L939.226 412.323L941.705 414.784L944.649 413.252L943.5 416.906L945.605 419.854L942.403 419.637Z" fill="#FFE38E"/>
</g>
</g>
<mask id="mask8_121_688" style="mask-type:luminance" maskUnits="userSpaceOnUse" x="1048" y="336" width="32" height="38">
<path d="M1062.26 373.966L1079.65 357.332L1066.06 336.042L1048.67 352.676L1062.26 373.966Z" fill="white"/>
</mask>
<g mask="url(#mask8_121_688)">
<g opacity="0.95">
<path d="M1060.29 362.932L1064.04 359.949L1067.93 362.588C1068.63 363.071 1069.47 362.267 1069.26 361.312L1068.11 356.046L1071.37 352.334C1071.97 351.663 1071.61 350.438 1070.8 350.388L1066.34 350.11L1064.46 345.16C1064.12 344.258 1063.06 344.3 1062.77 345.235L1061.18 350.329L1056.75 350.979C1055.94 351.098 1055.65 352.345 1056.28 352.969L1059.76 356.403L1058.9 361.767C1058.74 362.747 1059.62 363.48 1060.29 362.932ZM1062.24 351.988L1063.68 347.368L1065.38 351.858L1069.41 352.111L1066.45 355.485L1067.5 360.238L1063.98 357.839L1060.59 360.537L1061.36 355.682L1058.21 352.578L1062.24 351.988Z" fill="#FFE38E"/>
</g>
</g>
<g opacity="0.95">
<path d="M1232.18 409.065L1228.95 408.512L1227.84 404.776C1227.64 404.096 1226.86 404.046 1226.6 404.697L1225.18 408.278L1221.92 408.406C1221.33 408.426 1221.05 409.314 1221.48 409.819L1223.83 412.588L1222.93 416.417C1222.76 417.115 1223.36 417.713 1223.89 417.369L1226.76 415.493L1229.46 417.733C1229.95 418.143 1230.6 417.626 1230.49 416.911L1229.92 412.979L1232.5 410.525C1232.96 410.079 1232.77 409.161 1232.18 409.065ZM1226.83 413.958L1224.22 415.661L1225.05 412.189L1222.92 409.681L1225.87 409.557L1227.15 406.322L1228.16 409.713L1231.08 410.213L1228.75 412.435L1229.27 415.993L1226.83 413.958Z" fill="#FFE38E"/>
</g>
<mask id="mask9_121_688" style="mask-type:luminance" maskUnits="userSpaceOnUse" x="1413" y="371" width="19" height="22">
<path d="M1431.32 386.35L1426.15 371.428L1413.96 377.762L1419.13 392.685L1431.32 386.35Z" fill="white"/>
</mask>
<g mask="url(#mask9_121_688)">
<g opacity="0.97">
<path d="M1425.8 386.031L1424.97 382.912L1426.82 380.562C1427.16 380.137 1426.91 379.416 1426.42 379.418L1423.75 379.42L1422.5 376.526C1422.28 375.997 1421.64 376.063 1421.49 376.632L1420.67 379.754L1418.03 380.316C1417.55 380.419 1417.41 381.176 1417.81 381.526L1419.97 383.447L1419.59 386.69C1419.52 387.284 1420.07 387.683 1420.46 387.331L1422.62 385.4L1425.03 386.842C1425.47 387.105 1425.95 386.597 1425.8 386.031ZM1420.92 382.954L1418.96 381.216L1421.35 380.707L1422.09 377.883L1423.23 380.506L1425.64 380.499L1423.96 382.629L1424.71 385.452L1422.53 384.149L1420.57 385.899L1420.92 382.954Z" fill="#FFE38E"/>
</g>
</g>
<mask id="mask10_121_688" style="mask-type:luminance" maskUnits="userSpaceOnUse" x="44" y="514" width="21" height="26">
<path d="M58.1359 514.975L44.5088 523.111L51.1552 539.793L64.7824 531.657L58.1359 514.975Z" fill="white"/>
</mask>
<g mask="url(#mask10_121_688)">
<g opacity="0.84">
<path d="M58.1691 522.733L55.3046 524.082L52.9991 521.63C52.5818 521.182 51.9231 521.575 51.9544 522.253L52.1164 525.994L49.4875 527.916C49.0072 528.264 49.1074 529.15 49.6484 529.326L52.6129 530.292L53.2955 533.946C53.4201 534.612 54.1364 534.769 54.4406 534.191L56.1046 531.047L59.1561 531.385C59.715 531.446 60.0547 530.659 59.703 530.129L57.7685 527.214L58.9717 523.76C59.1915 523.129 58.6882 522.483 58.1691 522.733ZM55.5867 529.747L54.0805 532.599L53.463 529.286L50.7803 528.409L53.162 526.66L53.0113 523.282L55.101 525.512L57.6932 524.291L56.6057 527.418L58.3588 530.053L55.5867 529.747Z" fill="#FFE38E"/>
</g>
</g>
<mask id="mask11_121_688" style="mask-type:luminance" maskUnits="userSpaceOnUse" x="163" y="527" width="20" height="24">
<path d="M163.846 544.393L177.456 550.129L182.142 533.469L168.532 527.732L163.846 544.393Z" fill="white"/>
</mask>
<g mask="url(#mask11_121_688)">
<g opacity="0.99">
<path d="M171.043 545.873C174.179 547.194 177.587 545.159 178.666 541.32C179.746 537.483 178.084 533.311 174.948 531.989C171.812 530.667 168.405 532.701 167.325 536.54C166.245 540.379 167.907 544.551 171.043 545.873ZM174.558 533.377C177.064 534.433 178.395 537.774 177.532 540.843C176.669 543.911 173.94 545.54 171.434 544.484C168.927 543.427 167.596 540.086 168.459 537.019C169.322 533.95 172.051 532.32 174.558 533.377Z" fill="#F5C4DA"/>
</g>
</g>
<g opacity="0.74">
<path d="M433.061 515.884L428.807 514.68L427.825 519.889L426.407 519.488L427.389 514.28L423.135 513.078L423.462 511.342L427.716 512.544L428.699 507.337L430.117 507.737L429.135 512.944L433.389 514.147L433.061 515.884Z" fill="#D9F1FF"/>
</g>
<g opacity="0.93">
<path d="M610.432 553.777L613.576 552.96L612.908 549.11L613.956 548.838L614.625 552.687L617.769 551.869L617.992 553.152L614.847 553.97L615.516 557.82L614.468 558.091L613.799 554.243L610.655 555.06L610.432 553.777Z" fill="#D9F1FF"/>
</g>
<mask id="mask12_121_688" style="mask-type:luminance" maskUnits="userSpaceOnUse" x="919" y="476" width="21" height="26">
<path d="M939.81 479.229L921.755 476.123L919.217 498.225L937.272 501.331L939.81 479.229Z" fill="white"/>
</mask>
<g mask="url(#mask12_121_688)">
<g opacity="0.97">
<path d="M930.571 479.518C926.411 478.803 922.575 482.341 921.991 487.433C921.406 492.526 924.296 497.221 928.456 497.936C932.616 498.652 936.452 495.115 937.036 490.022C937.621 484.928 934.731 480.234 930.571 479.518ZM928.668 496.095C925.343 495.522 923.028 491.763 923.495 487.691C923.962 483.621 927.034 480.788 930.359 481.36C933.684 481.932 935.999 485.692 935.532 489.763C935.064 493.833 931.993 496.667 928.668 496.095Z" fill="#F5C4DA"/>
</g>
</g>
<mask id="mask13_121_688" style="mask-type:luminance" maskUnits="userSpaceOnUse" x="1133" y="437" width="22" height="27">
<path d="M1154.35 452.745L1145.87 437.358L1133.3 447.736L1141.78 463.124L1154.35 452.745Z" fill="white"/>
</mask>
<g mask="url(#mask13_121_688)">
<g opacity="0.84">
<path d="M1149.06 445.917C1147.1 442.372 1143.18 441.439 1140.29 443.83C1137.39 446.222 1136.63 451.021 1138.58 454.566C1140.54 458.111 1144.46 459.044 1147.35 456.653C1150.25 454.261 1151.01 449.462 1149.06 445.917ZM1139.63 453.701C1138.07 450.868 1138.68 447.024 1140.99 445.113C1143.31 443.201 1146.45 443.947 1148.01 446.781C1149.57 449.615 1148.96 453.459 1146.65 455.37C1144.33 457.282 1141.19 456.534 1139.63 453.701Z" fill="#F5C4DA"/>
</g>
</g>
<g opacity="0.8">
<path d="M1209.5 532.91L1214.01 532.718L1213.85 527.201L1215.35 527.136L1215.51 532.653L1220.02 532.461L1220.07 534.301L1215.56 534.493L1215.72 540.01L1214.22 540.075L1214.06 534.557L1209.55 534.75L1209.5 532.91Z" fill="#D9F1FF"/>
</g>
<g opacity="0.97">
<path d="M1532.58 439.785L1529.39 443.689L1525.1 442.085C1524.33 441.789 1523.63 442.799 1524.01 443.685L1526.05 448.584L1523.46 453.086C1522.99 453.902 1523.55 455.019 1524.36 454.86L1528.81 453.988L1531.51 458.39C1532 459.192 1533.04 458.878 1533.17 457.882L1533.86 452.447L1538.12 450.669C1538.9 450.344 1538.97 449.039 1538.24 448.584L1534.23 446.09L1534.15 440.576C1534.14 439.57 1533.15 439.072 1532.58 439.785ZM1532.54 451.082L1531.91 456.01L1529.46 452.016L1525.44 452.802L1527.78 448.714L1525.93 444.294L1529.82 445.755L1532.7 442.223L1532.77 447.212L1536.4 449.467L1532.54 451.082Z" fill="#FFE38E"/>
</g>
<g opacity="0.95">
<path d="M39.6185 637.66L37.6063 634.007L34.6231 636.472L33.9521 635.254L36.9356 632.79L34.9232 629.139L35.9176 628.317L37.93 631.969L40.9132 629.506L41.584 630.723L38.6007 633.187L40.6129 636.839L39.6185 637.66Z" fill="#D9F1FF"/>
</g>
<g opacity="0.98">
<path d="M183.587 648.402L186.023 649.986L186.024 653.346C186.022 653.956 186.628 654.272 186.985 653.846L188.962 651.505L191.578 652.554C192.053 652.749 192.485 652.143 192.264 651.59L191.051 648.559L192.673 645.838C192.969 645.342 192.633 644.655 192.134 644.742L189.411 645.214L187.799 642.482C187.503 641.981 186.866 642.164 186.78 642.769L186.306 646.093L183.682 647.131C183.203 647.32 183.142 648.119 183.587 648.402ZM188.996 646.412L191.464 645.979L189.992 648.446L191.089 651.191L188.715 650.244L186.933 652.361L186.935 649.312L184.73 647.879L187.104 646.938L187.531 643.929L188.996 646.412Z" fill="#FFE38E"/>
</g>
<mask id="mask14_121_688" style="mask-type:luminance" maskUnits="userSpaceOnUse" x="519" y="569" width="29" height="35">
<path d="M547.296 594.459L539.747 569.071L519.007 578.311L526.556 603.7L547.296 594.459Z" fill="white"/>
</mask>
<g mask="url(#mask14_121_688)">
<g opacity="0.84">
<path d="M538.116 593.338L536.957 588.057L540.208 584.345C540.801 583.673 540.436 582.446 539.629 582.398L535.18 582.115L533.307 577.164C532.97 576.26 531.906 576.303 531.615 577.235L530.022 582.342L525.597 582.996C524.791 583.114 524.496 584.36 525.132 584.987L528.598 588.415L527.734 593.772C527.576 594.752 528.456 595.475 529.136 594.932L532.878 591.947L536.78 594.605C537.492 595.09 538.332 594.297 538.116 593.338ZM530.214 587.695L527.07 584.592L531.083 584.002L532.527 579.381L534.233 583.867L538.251 584.114L535.297 587.478L536.346 592.259L532.813 589.856L529.429 592.561L530.214 587.695Z" fill="#FFE38E"/>
</g>
</g>
<g opacity="0.7">
<path d="M658.494 592.971L657.882 596.507L655.058 597.499C654.544 597.677 654.458 598.532 654.921 598.858L657.472 600.658L657.361 604.262C657.338 604.918 657.975 605.283 658.375 604.841L660.565 602.419L663.33 603.659C663.834 603.884 664.313 603.26 664.092 602.657L662.892 599.366L664.713 596.529C665.047 596.01 664.706 595.262 664.172 595.331L661.237 595.714L659.591 592.715C659.291 592.168 658.601 592.327 658.494 592.971ZM661.764 599.196L662.854 602.179L660.347 601.052L658.364 603.243L658.459 599.973L656.154 598.354L658.717 597.456L659.271 594.257L660.762 596.969L663.418 596.619L661.764 599.196Z" fill="#FFE38E"/>
</g>
<g opacity="0.93">
<path d="M782.865 588.447L783.61 585.042L780.83 584.13L781.078 582.995L783.859 583.907L784.604 580.504L785.531 580.808L784.786 584.212L787.566 585.124L787.318 586.259L784.537 585.347L783.792 588.75L782.865 588.447Z" fill="#D9F1FF"/>
</g>
<g opacity="0.85">
<path d="M1105.65 659.089C1104.92 654.025 1100.98 650.652 1096.85 651.546C1092.71 652.438 1089.96 657.254 1090.69 662.318C1091.41 667.383 1095.35 670.755 1099.49 669.862C1103.62 668.969 1106.38 664.153 1105.65 659.089ZM1092.18 661.995C1091.6 657.948 1093.8 654.091 1097.11 653.377C1100.42 652.663 1103.57 655.364 1104.15 659.412C1104.74 663.459 1102.53 667.317 1099.22 668.03C1095.92 668.744 1092.76 666.043 1092.18 661.995Z" fill="#F5C4DA"/>
</g>
<g opacity="0.8">
<path d="M1201.68 608.861L1202.34 613.932L1199 617.01C1198.39 617.566 1198.64 618.756 1199.39 618.898L1203.52 619.696L1204.87 624.546C1205.11 625.43 1206.11 625.518 1206.46 624.683L1208.35 620.105L1212.54 620.025C1213.3 620.01 1213.68 618.883 1213.13 618.221L1210.17 614.603L1211.41 609.704C1211.63 608.807 1210.87 608.027 1210.19 608.452L1206.46 610.79L1203.03 607.838C1202.4 607.3 1201.55 607.94 1201.68 608.861ZM1208.6 615.082L1211.29 618.358L1207.5 618.426L1205.78 622.569L1204.54 618.173L1200.81 617.46L1203.84 614.673L1203.24 610.082L1206.35 612.751L1209.73 610.631L1208.6 615.082Z" fill="#FFE38E"/>
</g>
<mask id="mask15_121_688" style="mask-type:luminance" maskUnits="userSpaceOnUse" x="1399" y="668" width="27" height="33">
<path d="M1425.06 690.248L1416.56 668.92L1399.14 679.322L1407.63 700.65L1425.06 690.248Z" fill="white"/>
</mask>
<g mask="url(#mask15_121_688)">
<g opacity="0.75">
<path d="M1419.36 680.451C1417.4 675.537 1412.57 673.502 1408.56 675.898C1404.54 678.295 1402.88 684.205 1404.84 689.119C1406.79 694.034 1411.62 696.068 1415.64 693.671C1419.65 691.275 1421.31 685.364 1419.36 680.451ZM1406.29 688.252C1404.72 684.325 1406.05 679.591 1409.26 677.675C1412.47 675.76 1416.34 677.39 1417.9 681.317C1419.47 685.246 1418.14 689.978 1414.93 691.894C1411.72 693.81 1407.85 692.18 1406.29 688.252Z" fill="#F5C4DA"/>
</g>
</g>
<mask id="mask16_121_688" style="mask-type:luminance" maskUnits="userSpaceOnUse" x="54" y="796" width="15" height="19">
<path d="M66.3898 796.806L54.1045 799.458L56.2707 814.497L68.556 811.845L66.3898 796.806Z" fill="white"/>
</mask>
<g mask="url(#mask16_121_688)">
<g opacity="0.76">
<path d="M60.4272 799.386C57.5965 799.997 55.7119 803.292 56.211 806.756C56.7101 810.222 59.4017 812.53 62.2324 811.919C65.0632 811.308 66.9478 808.012 66.4487 804.547C65.9496 801.083 63.258 798.775 60.4272 799.386ZM62.0519 810.665C59.7894 811.154 57.6337 809.305 57.2348 806.536C56.8358 803.766 58.3452 801.128 60.6078 800.639C62.8703 800.151 65.026 801.998 65.4249 804.768C65.8239 807.537 64.3144 810.177 62.0519 810.665Z" fill="#F5C4DA"/>
</g>
</g>
<mask id="mask17_121_688" style="mask-type:luminance" maskUnits="userSpaceOnUse" x="287" y="832" width="30" height="36">
<path d="M316.094 847.264L299.325 832.35L287.142 852.877L303.911 867.792L316.094 847.264Z" fill="white"/>
</mask>
<g mask="url(#mask17_121_688)">
<g opacity="0.84">
<path d="M306.694 841.518C302.83 838.081 297.438 839.127 294.631 843.857C291.823 848.586 292.678 855.188 296.541 858.624C300.405 862.06 305.797 861.015 308.605 856.285C311.412 851.554 310.558 844.954 306.694 841.518ZM297.557 856.914C294.468 854.167 293.784 848.88 296.028 845.1C298.272 841.319 302.59 840.482 305.679 843.228C308.767 845.975 309.451 851.262 307.207 855.042C304.964 858.822 300.645 859.66 297.557 856.914Z" fill="#F5C4DA"/>
</g>
</g>
<g opacity="0.73">
<path d="M424.597 786.246L427.435 782.106L424.053 778.633L424.999 777.253L428.381 780.726L431.218 776.587L432.345 777.745L429.508 781.884L432.889 785.358L431.943 786.738L428.562 783.264L425.725 787.404L424.597 786.246Z" fill="#D9F1FF"/>
</g>
<g opacity="0.91">
<path d="M583.882 790.382L585.68 786.712L589.155 786.934C589.786 786.978 590.152 786.06 589.736 785.477L587.447 782.257L588.706 778.275C588.938 777.551 588.34 776.842 587.753 777.148L584.539 778.826L581.832 776.132C581.339 775.641 580.606 776.115 580.664 776.894L580.972 781.146L578.039 783.463C577.501 783.887 577.648 784.886 578.267 785.059L581.674 786.016L582.573 790.15C582.737 790.905 583.559 791.052 583.882 790.382ZM582.181 781.868L581.899 778.014L584.352 780.459L587.263 778.942L586.126 782.557L588.197 785.46L585.044 785.254L583.417 788.575L582.601 784.834L579.517 783.974L582.181 781.868Z" fill="#FFE38E"/>
</g>
<g opacity="0.89">
<path d="M897.125 702.002L896.117 705.8L899.22 707.034L898.884 708.3L895.781 707.066L894.773 710.865L893.739 710.453L894.747 706.655L891.644 705.421L891.98 704.155L895.083 705.389L896.091 701.591L897.125 702.002Z" fill="#D9F1FF"/>
</g>
<mask id="mask18_121_688" style="mask-type:luminance" maskUnits="userSpaceOnUse" x="1142" y="701" width="32" height="39">
<path d="M1173.5 719.723L1157.38 701.959L1142.87 721.688L1158.99 739.452L1173.5 719.723Z" fill="white"/>
</mask>
<g mask="url(#mask18_121_688)">
<g opacity="0.81">
<path d="M1165.11 723.934L1162.11 720.007L1163.53 714.95C1163.8 714.032 1163.02 713.173 1162.3 713.587L1158.33 715.856L1154.84 712.618C1154.21 712.023 1153.3 712.661 1153.4 713.634L1153.94 718.965L1150.35 722.03C1149.7 722.59 1149.91 723.837 1150.7 724.021L1155 725.038L1156.27 730.172C1156.5 731.113 1157.53 731.242 1157.92 730.388L1160.04 725.686L1164.43 725.787C1165.23 725.807 1165.66 724.644 1165.11 723.934ZM1156.13 723.5L1152.23 722.584L1155.49 719.805L1155 714.98L1158.17 717.91L1161.75 715.856L1160.46 720.442L1163.17 723.996L1159.2 723.907L1157.28 728.164L1156.13 723.5Z" fill="#FFE38E"/>
</g>
</g>
<g opacity="0.74">
<path d="M1363.75 779.869L1365.51 776.79L1362.99 774.633L1363.58 773.608L1366.09 775.763L1367.86 772.685L1368.69 773.403L1366.93 776.482L1369.45 778.639L1368.86 779.665L1366.35 777.509L1364.58 780.588L1363.75 779.869Z" fill="#D9F1FF"/>
</g>
<g opacity="0.9">
<path d="M1407.85 837.611L1403.95 834.392L1401.33 839.164L1400.03 838.091L1402.66 833.319L1398.76 830.1L1399.63 828.51L1403.53 831.728L1406.16 826.956L1407.46 828.03L1404.83 832.802L1408.73 836.02L1407.85 837.611Z" fill="#D9F1FF"/>
</g>
<g opacity="0.74">
<path d="M345.237 891.729L343.112 897.061L347.468 899.661L346.76 901.439L342.404 898.837L340.28 904.17L338.828 903.303L340.953 897.971L336.597 895.371L337.305 893.593L341.661 896.194L343.785 890.862L345.237 891.729Z" fill="#D9F1FF"/>
</g>
<g opacity="0.93">
<path d="M455.63 918.944L454.696 922.273L451.871 922.821C451.357 922.918 451.191 923.733 451.607 924.114L453.897 926.224L453.441 929.691C453.356 930.322 453.936 930.767 454.365 930.399L456.716 928.376L459.268 929.976C459.734 930.268 460.257 929.733 460.102 929.118L459.261 925.763L461.296 923.286C461.669 922.832 461.411 922.06 460.889 922.05L458.016 921.994L456.715 918.857C456.478 918.284 455.796 918.338 455.63 918.944ZM458.187 925.436L458.952 928.477L456.638 927.024L454.509 928.853L454.918 925.706L452.847 923.805L455.411 923.312L456.257 920.299L457.435 923.138L460.036 923.185L458.187 925.436Z" fill="#FFE38E"/>
</g>
<mask id="mask19_121_688" style="mask-type:luminance" maskUnits="userSpaceOnUse" x="658" y="881" width="18" height="22">
<path d="M675.241 891.348L665.979 881.834L658.207 893.172L667.469 902.686L675.241 891.348Z" fill="white"/>
</mask>
<g mask="url(#mask19_121_688)">
<g opacity="0.75">
<path d="M670.634 893.894L668.902 891.778L669.614 888.925C669.745 888.409 669.297 887.949 668.904 888.196L666.73 889.555L664.733 887.834C664.371 887.518 663.876 887.895 663.947 888.435L664.333 891.391L662.38 893.185C662.025 893.512 662.163 894.202 662.606 894.286L665.017 894.75L665.806 897.581C665.95 898.099 666.529 898.147 666.73 897.661L667.838 894.991L670.284 894.943C670.73 894.935 670.951 894.276 670.634 893.894ZM665.622 893.866L663.436 893.449L665.208 891.823L664.859 889.146L666.673 890.703L668.634 889.473L667.986 892.059L669.553 893.975L667.339 894.019L666.339 896.438L665.622 893.866Z" fill="#FFE38E"/>
</g>
</g>
<g opacity="0.76">
<path d="M921.157 969.425L922.439 963.937L926.977 962.756C927.802 962.545 928.014 961.207 927.314 960.634L923.458 957.455L923.957 951.793C924.052 950.762 923.082 950.101 922.413 950.744L918.745 954.262L914.5 951.936C913.727 951.513 912.916 952.433 913.21 953.413L914.805 958.759L911.681 962.981C911.109 963.754 911.579 964.979 912.426 964.941L917.083 964.733L919.406 969.678C919.83 970.58 920.93 970.424 921.157 969.425ZM916.567 959.177L915.117 954.333L918.966 956.445L922.286 953.262L921.842 958.399L925.327 961.262L921.209 962.328L920.049 967.293L917.944 962.819L913.729 963.014L916.567 959.177Z" fill="#FFE38E"/>
</g>
<g opacity="0.8">
<path d="M1090.54 908.921L1086.63 906.984L1085.05 911.777L1083.74 911.132L1085.32 906.339L1081.41 904.404L1081.93 902.806L1085.85 904.742L1087.43 899.949L1088.74 900.595L1087.15 905.388L1091.07 907.323L1090.54 908.921Z" fill="#D9F1FF"/>
</g>
<g opacity="0.92">
<path d="M1226.28 864.792L1229.82 863.13L1228.46 858.798L1229.64 858.243L1231 862.576L1234.54 860.912L1234.99 862.356L1231.45 864.019L1232.81 868.351L1231.63 868.906L1230.27 864.573L1226.73 866.237L1226.28 864.792Z" fill="#D9F1FF"/>
</g>
<mask id="mask20_121_688" style="mask-type:luminance" maskUnits="userSpaceOnUse" x="1509" y="851" width="18" height="21">
<path d="M1526.6 867.404L1523.07 851.291L1509.91 855.609L1513.44 871.721L1526.6 867.404Z" fill="white"/>
</mask>
<g mask="url(#mask20_121_688)">
<g opacity="0.93">
<path d="M1521 866.11L1520.52 862.785L1522.69 860.716C1523.08 860.341 1522.91 859.563 1522.42 859.481L1519.69 859.014L1518.76 855.845C1518.59 855.267 1517.93 855.223 1517.71 855.778L1516.51 858.814L1513.76 858.924C1513.26 858.945 1513.02 859.691 1513.39 860.119L1515.37 862.454L1514.6 865.692C1514.46 866.285 1514.97 866.788 1515.41 866.498L1517.84 864.909L1520.13 866.801C1520.54 867.147 1521.09 866.713 1521 866.11ZM1516.39 862.119L1514.59 860.002L1517.09 859.904L1518.18 857.157L1519.03 860.029L1521.49 860.445L1519.53 862.32L1519.96 865.329L1517.9 863.619L1515.7 865.059L1516.39 862.119Z" fill="#FFE38E"/>
</g>
</g>
<mask id="mask21_121_688" style="mask-type:luminance" maskUnits="userSpaceOnUse" x="-10" y="1001" width="25" height="30">
<path d="M-1.12547 1001.13L-9.22852 1020.6L6.67463 1030.52L14.7777 1011.05L-1.12547 1001.13Z" fill="white"/>
</mask>
<g mask="url(#mask21_121_688)">
<g opacity="0.89">
<path d="M-3.85095 1011.69C-5.71803 1016.17 -4.26526 1021.65 -0.600903 1023.93C3.06344 1026.22 7.53459 1024.44 9.40162 1019.95C11.2687 1015.47 9.81602 1009.99 6.15163 1007.71C2.48728 1005.42 -1.98386 1007.2 -3.85095 1011.69ZM8.07642 1019.13C6.5841 1022.71 3.00317 1024.14 0.0743489 1022.31C-2.85449 1020.48 -4.018 1016.1 -2.52569 1012.51C-1.03337 1008.93 2.54755 1007.5 5.47638 1009.33C8.40521 1011.16 9.56873 1015.54 8.07642 1019.13Z" fill="#F5C4DA"/>
</g>
</g>
<mask id="mask22_121_688" style="mask-type:luminance" maskUnits="userSpaceOnUse" x="141" y="1014" width="21" height="26">
<path d="M161.597 1035.71L158.265 1014.72L141.121 1018.8L144.453 1039.79L161.597 1035.71Z" fill="white"/>
</mask>
<g mask="url(#mask22_121_688)">
<g opacity="0.92">
<path d="M158.502 1025.55C157.734 1020.72 153.92 1017.57 149.97 1018.51C146.02 1019.45 143.447 1024.12 144.215 1028.95C144.983 1033.79 148.797 1036.94 152.747 1036C156.697 1035.06 159.27 1030.39 158.502 1025.55ZM145.644 1028.61C145.03 1024.75 147.09 1021.01 150.248 1020.26C153.405 1019.51 156.459 1022.03 157.073 1025.9C157.687 1029.76 155.627 1033.5 152.469 1034.25C149.312 1035 146.258 1032.48 145.644 1028.61Z" fill="#F5C4DA"/>
</g>
</g>
<g opacity="0.72">
<path d="M477.913 1090.63L481.931 1091.5L483.186 1096.22C483.411 1097.08 484.381 1097.19 484.725 1096.39L486.632 1091.99L490.702 1092C491.443 1092.01 491.825 1090.91 491.307 1090.26L488.47 1086.68L489.735 1081.94C489.966 1081.08 489.238 1080.3 488.568 1080.7L484.914 1082.89L481.626 1079.95C481.024 1079.41 480.197 1080.02 480.301 1080.92L480.875 1085.86L477.573 1088.79C476.97 1089.32 477.182 1090.48 477.913 1090.63ZM484.777 1084.81L488.088 1082.82L486.939 1087.11L489.505 1090.36L485.813 1090.35L484.097 1094.33L482.962 1090.04L479.326 1089.26L482.314 1086.6L481.791 1082.13L484.777 1084.81Z" fill="#FFE38E"/>
</g>
<g opacity="0.81">
<path d="M677.058 1043.69L673.082 1041.21L671.057 1046.08L669.731 1045.25L671.757 1040.39L667.781 1037.91L668.457 1036.28L672.432 1038.76L674.458 1033.9L675.783 1034.72L673.758 1039.59L677.733 1042.07L677.058 1043.69Z" fill="#D9F1FF"/>
</g>
<g opacity="0.97">
<path d="M845.78 1083.77L845.041 1088.92L840.996 1090.53C840.26 1090.82 840.171 1092.06 840.855 1092.5L844.618 1094.95L844.607 1100.17C844.601 1101.12 845.538 1101.61 846.097 1100.95L849.165 1097.31L853.217 1098.93C853.955 1099.23 854.622 1098.29 854.278 1097.43L852.405 1092.75L854.923 1088.53C855.384 1087.76 854.859 1086.7 854.09 1086.83L849.861 1087.57L847.356 1083.33C846.899 1082.56 845.908 1082.83 845.78 1083.77ZM850.766 1092.57L852.467 1096.82L848.793 1095.34L846.015 1098.63L846.018 1093.9L842.617 1091.7L846.288 1090.24L846.957 1085.58L849.226 1089.41L853.053 1088.74L850.766 1092.57Z" fill="#FFE38E"/>
</g>
<g opacity="0.71">
<path d="M1012.43 1000.64L1011.67 1003.49L1009.27 1004.01C1008.84 1004.1 1008.71 1004.8 1009.07 1005.12L1011.04 1006.87L1010.7 1009.83C1010.63 1010.37 1011.13 1010.74 1011.49 1010.42L1013.47 1008.65L1015.66 1009.97C1016.06 1010.21 1016.5 1009.74 1016.36 1009.22L1015.6 1006.38L1017.3 1004.24C1017.62 1003.84 1017.39 1003.19 1016.94 1003.19L1014.5 1003.2L1013.35 1000.55C1013.14 1000.07 1012.56 1000.12 1012.43 1000.64ZM1014.68 1006.12L1015.37 1008.7L1013.38 1007.5L1011.59 1009.1L1011.9 1006.41L1010.12 1004.83L1012.29 1004.37L1012.98 1001.79L1014.02 1004.18L1016.23 1004.17L1014.68 1006.12Z" fill="#FFE38E"/>
</g>
<g opacity="0.74">
<path d="M1358.02 1048.77L1359.47 1044.78L1363.02 1044.47C1363.66 1044.42 1363.94 1043.43 1363.46 1042.9L1360.81 1039.99L1361.68 1035.75C1361.84 1034.98 1361.17 1034.36 1360.6 1034.76L1357.51 1036.95L1354.49 1034.63C1353.94 1034.2 1353.24 1034.8 1353.38 1035.58L1354.13 1039.85L1351.39 1042.64C1350.89 1043.16 1351.14 1044.15 1351.78 1044.23L1355.34 1044.68L1356.67 1048.74C1356.91 1049.48 1357.76 1049.5 1358.02 1048.77ZM1355.43 1040.39L1354.75 1036.53L1357.49 1038.63L1360.29 1036.65L1359.5 1040.49L1361.9 1043.12L1358.68 1043.39L1357.36 1047.01L1356.16 1043.34L1352.94 1042.94L1355.43 1040.39Z" fill="#FFE38E"/>
</g>
<g opacity="0.77">
<path d="M92.9999 1097.71L98.2476 1099.8L99.9523 1093.38L101.702 1094.07L99.9963 1100.5L105.244 1102.58L104.676 1104.73L99.4283 1102.64L97.7234 1109.06L95.9742 1108.37L97.6792 1101.94L92.4316 1099.85L92.9999 1097.71Z" fill="#D9F1FF"/>
</g>
<mask id="mask23_121_688" style="mask-type:luminance" maskUnits="userSpaceOnUse" x="334" y="1141" width="24" height="29">
<path d="M357.745 1155.69L346.346 1141.74L334.946 1155.69L346.346 1169.64L357.745 1155.69Z" fill="white"/>
</mask>
<g mask="url(#mask23_121_688)">
<g opacity="0.81">
<path d="M351.386 1158.42L349.287 1155.36L350.503 1151.67C350.726 1151 350.175 1150.33 349.629 1150.6L346.613 1152.1L344.124 1149.53C343.673 1149.06 342.979 1149.49 343.022 1150.21L343.255 1154.2L340.49 1156.3C339.987 1156.69 340.106 1157.62 340.685 1157.8L343.844 1158.76L344.623 1162.63C344.765 1163.34 345.53 1163.48 345.843 1162.87L347.567 1159.48L350.821 1159.76C351.415 1159.81 351.771 1158.97 351.386 1158.42ZM344.732 1157.67L341.868 1156.8L344.376 1154.89L344.167 1151.29L346.428 1153.61L349.149 1152.26L348.042 1155.6L349.942 1158.37L346.998 1158.11L345.44 1161.19L344.732 1157.67Z" fill="#FFE38E"/>
</g>
</g>
<mask id="mask24_121_688" style="mask-type:luminance" maskUnits="userSpaceOnUse" x="557" y="1122" width="19" height="22">
<path d="M567.108 1122.28L557.98 1132.34L566.199 1143.51L575.328 1133.45L567.108 1122.28Z" fill="white"/>
</mask>
<g mask="url(#mask24_121_688)">
<g opacity="0.77">
<path d="M568.552 1128.31L566.567 1130.14L564.324 1128.86C563.917 1128.63 563.476 1129.11 563.624 1129.63L564.433 1132.5L562.736 1134.72C562.426 1135.12 562.665 1135.78 563.119 1135.77L565.604 1135.72L566.802 1138.37C567.02 1138.86 567.607 1138.78 567.738 1138.25L568.46 1135.35L570.898 1134.78C571.345 1134.67 571.466 1133.97 571.095 1133.65L569.057 1131.91L569.364 1128.89C569.42 1128.34 568.91 1127.97 568.552 1128.31ZM567.82 1134.48L567.167 1137.11L566.082 1134.7L563.833 1134.75L565.369 1132.74L564.635 1130.15L566.669 1131.31L568.465 1129.65L568.189 1132.39L570.035 1133.96L567.82 1134.48Z" fill="#FFE38E"/>
</g>
</g>
<g opacity="0.85">
<path d="M737.131 1132.26L733.634 1131.5L733.017 1135.78L731.852 1135.53L732.468 1131.25L728.972 1130.49L729.177 1129.07L732.674 1129.82L733.291 1125.54L734.456 1125.79L733.839 1130.07L737.336 1130.83L737.131 1132.26Z" fill="#D9F1FF"/>
</g>
<g opacity="0.76">
<path d="M968.185 1149.58L967.977 1153.21L970.945 1153.46L970.876 1154.67L967.908 1154.42L967.701 1158.05L966.712 1157.97L966.919 1154.34L963.952 1154.08L964.021 1152.87L966.988 1153.13L967.196 1149.49L968.185 1149.58Z" fill="#D9F1FF"/>
</g>
<g opacity="0.85">
<path d="M1081.88 1178.23V1174.57L1084.51 1172.86C1084.98 1172.55 1084.92 1171.68 1084.41 1171.47L1081.57 1170.35L1081.06 1166.75C1080.97 1166.09 1080.28 1165.89 1079.96 1166.44L1078.2 1169.4L1075.25 1168.88C1074.71 1168.79 1074.34 1169.53 1074.66 1170.07L1076.42 1173.03L1075.1 1176.31C1074.86 1176.91 1075.33 1177.56 1075.85 1177.35L1078.69 1176.22L1080.84 1178.77C1081.23 1179.23 1081.88 1178.89 1081.88 1178.23ZM1077.57 1172.9L1075.97 1170.23L1078.65 1170.7L1080.24 1168.02L1080.71 1171.28L1083.27 1172.29L1080.89 1173.84V1177.16L1078.94 1174.85L1076.37 1175.88L1077.57 1172.9Z" fill="#FFE38E"/>
</g>
<mask id="mask25_121_688" style="mask-type:luminance" maskUnits="userSpaceOnUse" x="1329" y="1114" width="29" height="35">
<path d="M1350.18 1114.3L1329.67 1122.94L1336.73 1148.04L1357.24 1139.4L1350.18 1114.3Z" fill="white"/>
</mask>
<g mask="url(#mask25_121_688)">
<g opacity="0.74">
<path d="M1340.51 1120.71C1335.79 1122.7 1333.28 1128.99 1334.91 1134.77C1336.54 1140.56 1341.67 1143.62 1346.4 1141.63C1351.12 1139.64 1353.63 1133.35 1352 1127.57C1350.37 1121.78 1345.24 1118.72 1340.51 1120.71ZM1345.81 1139.54C1342.03 1141.13 1337.92 1138.67 1336.62 1134.05C1335.32 1129.43 1337.32 1124.39 1341.1 1122.8C1344.88 1121.21 1348.99 1123.67 1350.29 1128.29C1351.59 1132.91 1349.58 1137.95 1345.81 1139.54Z" fill="#F5C4DA"/>
</g>
</g>
<mask id="mask26_121_688" style="mask-type:luminance" maskUnits="userSpaceOnUse" x="1558" y="1173" width="19" height="23">
<path d="M1576.3 1189.35L1571.05 1173.45L1558.06 1179.88L1563.31 1195.78L1576.3 1189.35Z" fill="white"/>
</mask>
<g mask="url(#mask26_121_688)">
<g opacity="0.95">
<path d="M1570.46 1188.89L1569.63 1185.57L1571.62 1183.13C1571.99 1182.69 1571.73 1181.92 1571.22 1181.91L1568.39 1181.85L1567.11 1178.76C1566.88 1178.2 1566.21 1178.25 1566.04 1178.85L1565.12 1182.14L1562.33 1182.67C1561.82 1182.77 1561.66 1183.57 1562.07 1183.95L1564.33 1186.03L1563.88 1189.45C1563.8 1190.08 1564.37 1190.51 1564.79 1190.15L1567.11 1188.15L1569.63 1189.73C1570.09 1190.02 1570.61 1189.49 1570.46 1188.89ZM1565.34 1185.53L1563.29 1183.64L1565.83 1183.16L1566.66 1180.19L1567.82 1182.99L1570.38 1183.04L1568.56 1185.25L1569.32 1188.25L1567.03 1186.83L1564.93 1188.63L1565.34 1185.53Z" fill="#FFE38E"/>
</g>
</g>
</g>
</g>
<defs>
<clipPath id="clip0_121_688">
<rect width="1566" height="1196" fill="white"/>
</clipPath>
</defs>
</svg>
