<svg width="1567" height="977" viewBox="0 0 1567 977" fill="none" xmlns="http://www.w3.org/2000/svg">
<rect width="1585" height="682.697" transform="matrix(1 0 0 -1 -66 821.999)" fill="white"/>
<ellipse cx="98.4537" cy="79.626" rx="98.4537" ry="79.626" transform="matrix(1 0 0 -1 -93 218.86)" fill="white"/>
<ellipse cx="98.4537" cy="79.626" rx="98.4537" ry="79.626" transform="matrix(1 0 0 -1 259.013 248.219)" fill="white"/>
<ellipse cx="153.456" cy="124.11" rx="153.456" ry="124.11" transform="matrix(1 0 0 -1 381.118 248.219)" fill="white"/>
<ellipse cx="153.456" cy="124.11" rx="153.456" ry="124.11" transform="matrix(1 0 0 -1 572.525 319.393)" fill="white"/>
<ellipse cx="113.304" cy="124.11" rx="113.304" ry="124.11" transform="matrix(1 0 0 -1 795.833 356.76)" fill="white"/>
<ellipse cx="153.456" cy="124.11" rx="153.456" ry="124.11" transform="matrix(1 0 0 -1 944.339 307.828)" fill="white"/>
<ellipse cx="109.454" cy="124.11" rx="109.454" ry="124.11" transform="matrix(1 0 0 -1 1177.55 346.084)" fill="white"/>
<ellipse cx="163.906" cy="146.352" rx="163.906" ry="146.352" transform="matrix(1 0 0 -1 1287.55 330.07)" fill="white"/>
<ellipse cx="98.4537" cy="79.626" rx="98.4537" ry="79.626" transform="matrix(1 0 0 -1 6.00372 267.792)" fill="white"/>
<ellipse cx="98.4537" cy="79.626" rx="98.4537" ry="79.626" transform="matrix(1 0 0 -1 119.308 257.116)" fill="white"/>
<ellipse cx="69.0299" cy="65.5185" rx="69.0299" ry="65.5185" transform="matrix(1 0 0 -1 617.822 168.293)" fill="white"/>
<ellipse cx="21.4552" cy="16.7008" rx="21.4552" ry="16.7008" transform="matrix(1 0 0 -1 366.889 104.701)" fill="white"/>
<ellipse cx="21.4552" cy="16.7008" rx="21.4552" ry="16.7008" transform="matrix(1 0 0 -1 734.426 89.285)" fill="white"/>
<g opacity="0.95" clip-path="url(#clip0_14_29)">
<path d="M182.02 221.451C184.459 219.404 184.776 215.778 182.729 213.339C180.683 210.9 177.057 210.583 174.618 212.63C172.179 214.676 171.862 218.302 173.908 220.741C175.955 223.18 179.581 223.497 182.02 221.451ZM175.358 213.512C177.307 211.876 180.211 212.13 181.847 214.08C183.483 216.029 183.229 218.933 181.279 220.569C179.33 222.205 176.426 221.951 174.79 220.001C173.154 218.052 173.409 215.148 175.358 213.512Z" fill="#F5C4DA"/>
</g>
<g opacity="0.83">
<path d="M369.108 133.852L372.9 133.251L372.299 129.46L373.563 129.26L374.163 133.051L377.954 132.451L378.154 133.715L374.363 134.315L374.964 138.106L373.7 138.306L373.1 134.515L369.309 135.116L369.108 133.852Z" fill="#D9F1FF"/>
</g>
<g opacity="0.94">
<path d="M710.95 180.619L713.485 176.715L709.581 174.181L710.426 172.88L714.329 175.414L716.864 171.511L718.165 172.356L715.631 176.259L719.534 178.794L718.689 180.095L714.786 177.56L712.251 181.464L710.95 180.619Z" fill="#D9F1FF"/>
</g>
<g opacity="0.81">
<path d="M843.688 153.6L845.747 156.433L848.581 154.374L849.267 155.319L846.433 157.378L848.492 160.211L847.548 160.898L845.489 158.064L842.655 160.123L841.969 159.178L844.803 157.119L842.744 154.286L843.688 153.6Z" fill="#D9F1FF"/>
</g>
<g opacity="0.96" clip-path="url(#clip1_14_29)">
<path d="M1163.68 181.904L1164.72 185.769L1161.81 188.485C1161.28 188.976 1161.6 189.874 1162.32 189.909L1166.31 190.116L1167.99 193.738C1168.29 194.4 1169.24 194.369 1169.5 193.687L1170.93 189.95L1174.89 189.472C1175.61 189.385 1175.88 188.473 1175.31 188.015L1172.2 185.507L1172.98 181.588C1173.12 180.87 1172.33 180.342 1171.72 180.739L1168.37 182.923L1164.88 180.978C1164.24 180.623 1163.49 181.203 1163.68 181.904ZM1170.76 186.034L1173.57 188.304L1169.98 188.736L1168.69 192.117L1167.16 188.834L1163.56 188.653L1166.2 186.192L1165.26 182.695L1168.43 184.453L1171.46 182.473L1170.76 186.034Z" fill="#FFE38E"/>
</g>
<g opacity="0.88" clip-path="url(#clip2_14_29)">
<path d="M1293.93 219.196C1294.03 216.367 1291.82 214.001 1288.99 213.903C1286.16 213.804 1283.8 216.01 1283.7 218.839C1283.6 221.667 1285.81 224.033 1288.64 224.132C1291.46 224.231 1293.83 222.024 1293.93 219.196ZM1284.72 218.874C1284.8 216.614 1286.7 214.847 1288.96 214.925C1291.22 215.004 1292.99 216.899 1292.91 219.16C1292.83 221.421 1290.93 223.188 1288.67 223.109C1286.41 223.03 1284.64 221.135 1284.72 218.874Z" fill="#F5C4DA"/>
</g>
<g opacity="0.74" clip-path="url(#clip3_14_29)">
<path d="M1502.02 181.068C1501.11 186.25 1504.56 191.178 1509.74 192.091C1514.92 193.005 1519.85 189.555 1520.77 184.372C1521.68 179.19 1518.23 174.262 1513.05 173.349C1507.86 172.435 1502.94 175.885 1502.02 181.068ZM1518.89 184.042C1518.16 188.184 1514.21 190.948 1510.07 190.217C1505.93 189.487 1503.17 185.54 1503.9 181.398C1504.63 177.256 1508.57 174.493 1512.72 175.223C1516.86 175.953 1519.62 179.9 1518.89 184.042Z" fill="#F5C4DA"/>
</g>
<g opacity="0.85">
<path d="M119.376 273.557L123.623 273.111L123.177 268.864L124.592 268.715L125.039 272.962L129.285 272.516L129.434 273.931L125.187 274.378L125.634 278.625L124.218 278.773L123.772 274.527L119.525 274.973L119.376 273.557Z" fill="#D9F1FF"/>
</g>
<path d="M267.169 327.559L262.296 329.936L264.672 334.809L263.048 335.601L260.671 330.728L255.798 333.105L255.006 331.48L259.879 329.104L257.502 324.231L259.127 323.438L261.503 328.311L266.376 325.935L267.169 327.559Z" fill="#D9F1FF"/>
<g opacity="0.77" clip-path="url(#clip4_14_29)">
<path d="M491.142 257.189C487.796 253.844 482.387 253.844 479.041 257.189C475.695 260.535 475.695 265.944 479.041 269.29C482.387 272.636 487.796 272.636 491.142 269.29C494.488 265.944 494.488 260.535 491.142 257.189ZM480.251 268.08C477.577 265.406 477.577 261.074 480.251 258.4C482.925 255.725 487.257 255.725 489.932 258.4C492.606 261.074 492.606 265.406 489.932 268.08C487.257 270.754 482.925 270.754 480.251 268.08Z" fill="#F5C4DA"/>
</g>
<g opacity="0.94" clip-path="url(#clip5_14_29)">
<path d="M719.929 255.434C723.366 252.651 723.894 247.624 721.111 244.187C718.328 240.751 713.301 240.222 709.864 243.005C706.428 245.788 705.899 250.816 708.682 254.252C711.465 257.689 716.493 258.217 719.929 255.434ZM710.871 244.248C713.618 242.024 717.644 242.447 719.868 245.194C722.093 247.941 721.67 251.967 718.923 254.191C716.176 256.416 712.149 255.993 709.925 253.246C707.701 250.499 708.124 246.472 710.871 244.248Z" fill="#F5C4DA"/>
</g>
<g opacity="0.75" clip-path="url(#clip6_14_29)">
<path d="M946.146 336.097L942.893 337.481L940.158 335.267C939.663 334.863 938.917 335.259 938.976 335.896L939.285 339.407L936.322 341.321C935.78 341.666 935.925 342.496 936.553 342.64L939.998 343.429L940.903 346.838C941.069 347.459 941.899 347.578 942.23 347.023L944.042 343.999L947.566 344.194C948.212 344.23 948.577 343.475 948.154 342.991L945.832 340.327L947.103 337.03C947.336 336.429 946.735 335.842 946.146 336.097ZM943.403 342.797L941.763 345.54L940.943 342.449L937.826 341.732L940.511 339.992L940.226 336.822L942.705 338.833L945.649 337.581L944.5 340.566L946.605 342.974L943.403 342.797Z" fill="#FFE38E"/>
</g>
<g opacity="0.95" clip-path="url(#clip7_14_29)">
<path d="M1061.29 296.475L1065.04 294.039L1068.93 296.194C1069.63 296.589 1070.47 295.932 1070.26 295.152L1069.11 290.85L1072.37 287.818C1072.97 287.27 1072.61 286.269 1071.8 286.228L1067.34 286.001L1065.46 281.958C1065.12 281.221 1064.06 281.255 1063.77 282.019L1062.18 286.18L1057.75 286.711C1056.94 286.808 1056.65 287.827 1057.28 288.337L1060.76 291.142L1059.9 295.524C1059.74 296.324 1060.62 296.923 1061.29 296.475ZM1063.24 287.535L1064.68 283.761L1066.38 287.429L1070.41 287.636L1067.45 290.392L1068.5 294.275L1064.98 292.315L1061.59 294.519L1062.36 290.553L1059.21 288.017L1063.24 287.535Z" fill="#FFE38E"/>
</g>
<g opacity="0.95">
<path d="M1233.18 334.161L1229.95 333.709L1228.84 330.657C1228.64 330.102 1227.86 330.061 1227.6 330.593L1226.18 333.518L1222.92 333.623C1222.33 333.639 1222.05 334.364 1222.48 334.777L1224.83 337.039L1223.93 340.167C1223.76 340.737 1224.36 341.225 1224.89 340.944L1227.76 339.412L1230.46 341.242C1230.95 341.577 1231.6 341.154 1231.49 340.57L1230.92 337.358L1233.5 335.354C1233.97 334.989 1233.77 334.239 1233.18 334.161ZM1227.83 338.158L1225.22 339.549L1226.05 336.713L1223.92 334.664L1226.87 334.563L1228.15 331.92L1229.16 334.69L1232.08 335.099L1229.75 336.914L1230.27 339.82L1227.83 338.158Z" fill="#FFE38E"/>
</g>
<g opacity="0.97" clip-path="url(#clip8_14_29)">
<path d="M1426.8 315.345L1425.97 312.797L1427.82 310.877C1428.16 310.53 1427.91 309.941 1427.43 309.943L1424.75 309.944L1423.5 307.58C1423.28 307.148 1422.64 307.202 1422.49 307.667L1421.67 310.217L1419.03 310.676C1418.55 310.76 1418.41 311.379 1418.81 311.665L1420.97 313.234L1420.59 315.883C1420.52 316.368 1421.07 316.694 1421.46 316.407L1423.63 314.829L1426.03 316.007C1426.47 316.222 1426.95 315.807 1426.8 315.345ZM1421.92 312.831L1419.96 311.411L1422.35 310.996L1423.09 308.689L1424.23 310.831L1426.64 310.826L1424.96 312.566L1425.71 314.872L1423.53 313.807L1421.57 315.237L1421.92 312.831Z" fill="#FFE38E"/>
</g>
<g opacity="0.84" clip-path="url(#clip9_14_29)">
<path d="M59.1693 427.015L56.3049 428.117L53.9994 426.114C53.582 425.748 52.9234 426.069 52.9546 426.623L53.1166 429.679L50.4877 431.249C50.0074 431.533 50.1076 432.257 50.6487 432.401L53.6131 433.19L54.2957 436.175C54.4203 436.719 55.1367 436.847 55.4408 436.375L57.1048 433.807L60.1563 434.083C60.7152 434.133 61.055 433.49 60.7032 433.057L58.7688 430.676L59.9719 427.854C60.1917 427.339 59.6884 426.811 59.1693 427.015ZM56.587 432.745L55.0807 435.075L54.4632 432.368L51.7805 431.652L54.1623 430.223L54.0115 427.464L56.1012 429.285L58.6934 428.288L57.6059 430.842L59.359 432.995L56.587 432.745Z" fill="#FFE38E"/>
</g>
<g opacity="0.99" clip-path="url(#clip10_14_29)">
<path d="M172.042 445.918C175.178 446.997 178.586 445.335 179.665 442.199C180.745 439.064 179.083 435.656 175.947 434.576C172.811 433.496 169.404 435.158 168.324 438.294C167.244 441.43 168.906 444.838 172.042 445.918ZM175.557 435.71C178.063 436.573 179.394 439.302 178.531 441.809C177.668 444.315 174.939 445.646 172.433 444.783C169.926 443.92 168.595 441.191 169.458 438.685C170.321 436.178 173.05 434.847 175.557 435.71Z" fill="#F5C4DA"/>
</g>
<g opacity="0.74">
<path d="M434.061 421.42L429.807 420.437L428.825 424.692L427.407 424.364L428.389 420.11L424.135 419.128L424.462 417.71L428.716 418.692L429.699 414.438L431.117 414.765L430.135 419.019L434.389 420.001L434.061 421.42Z" fill="#D9F1FF"/>
</g>
<g opacity="0.93">
<path d="M611.432 452.375L614.576 451.707L613.908 448.562L614.956 448.34L615.625 451.484L618.769 450.816L618.992 451.864L615.847 452.532L616.516 455.677L615.468 455.899L614.799 452.755L611.655 453.423L611.432 452.375Z" fill="#D9F1FF"/>
</g>
<g opacity="0.97" clip-path="url(#clip11_14_29)">
<path d="M931.571 391.713C927.411 391.129 923.576 394.019 922.991 398.179C922.406 402.339 925.297 406.175 929.457 406.759C933.617 407.344 937.452 404.454 938.037 400.294C938.622 396.133 935.731 392.298 931.571 391.713ZM929.668 405.255C926.343 404.787 924.028 401.716 924.496 398.39C924.963 395.065 928.035 392.751 931.36 393.218C934.685 393.685 937 396.757 936.532 400.082C936.065 403.407 932.993 405.722 929.668 405.255Z" fill="#F5C4DA"/>
</g>
<g opacity="0.84" clip-path="url(#clip12_14_29)">
<path d="M1150.06 364.265C1148.1 361.369 1144.18 360.607 1141.29 362.56C1138.39 364.514 1137.63 368.434 1139.58 371.33C1141.54 374.226 1145.46 374.988 1148.35 373.035C1151.25 371.081 1152.01 367.161 1150.06 364.265ZM1140.63 370.624C1139.07 368.309 1139.68 365.169 1141.99 363.608C1144.31 362.046 1147.45 362.656 1149.01 364.971C1150.57 367.286 1149.96 370.426 1147.65 371.987C1145.33 373.549 1142.19 372.938 1140.63 370.624Z" fill="#F5C4DA"/>
</g>
<g opacity="0.8">
<path d="M1210.5 435.329L1215.01 435.172L1214.85 430.665L1216.35 430.612L1216.51 435.119L1221.02 434.962L1221.07 436.465L1216.56 436.622L1216.72 441.129L1215.22 441.182L1215.06 436.674L1210.55 436.832L1210.5 435.329Z" fill="#D9F1FF"/>
</g>
<g opacity="0.97">
<path d="M1533.58 359.256L1530.39 362.445L1526.1 361.135C1525.33 360.893 1524.63 361.718 1525.01 362.442L1527.05 366.444L1524.46 370.121C1523.99 370.788 1524.55 371.7 1525.36 371.57L1529.81 370.858L1532.51 374.454C1533 375.109 1534.04 374.853 1534.17 374.039L1534.86 369.599L1539.12 368.147C1539.9 367.881 1539.97 366.815 1539.24 366.444L1535.23 364.406L1535.16 359.902C1535.14 359.08 1534.15 358.673 1533.58 359.256ZM1533.54 368.484L1532.91 372.51L1530.46 369.247L1526.44 369.889L1528.78 366.55L1526.93 362.939L1530.82 364.133L1533.7 361.247L1533.77 365.323L1537.4 367.165L1533.54 368.484Z" fill="#FFE38E"/>
</g>
<g opacity="0.95">
<path d="M40.6189 520.898L38.6067 517.914L35.6234 519.927L34.9526 518.932L37.9359 516.92L35.9237 513.937L36.9181 513.266L38.9303 516.249L41.9136 514.237L42.5844 515.231L39.6011 517.244L41.6133 520.227L40.6189 520.898Z" fill="#D9F1FF"/>
</g>
<g opacity="0.98">
<path d="M184.586 529.673L187.023 530.967L187.023 533.712C187.021 534.21 187.627 534.468 187.985 534.12L189.962 532.208L192.577 533.065C193.053 533.224 193.485 532.729 193.263 532.277L192.051 529.801L193.673 527.578C193.968 527.173 193.633 526.612 193.134 526.683L190.41 527.069L188.798 524.837C188.503 524.428 187.866 524.577 187.78 525.071L187.305 527.787L184.682 528.635C184.203 528.789 184.142 529.442 184.586 529.673ZM189.995 528.047L192.464 527.694L190.992 529.709L192.088 531.951L189.715 531.178L187.932 532.907L187.935 530.416L185.73 529.246L188.104 528.477L188.531 526.019L189.995 528.047Z" fill="#FFE38E"/>
</g>
<g opacity="0.84" clip-path="url(#clip13_14_29)">
<path d="M539.117 484.692L537.957 480.378L541.208 477.345C541.801 476.796 541.437 475.794 540.63 475.755L536.181 475.524L534.308 471.479C533.97 470.741 532.906 470.776 532.616 471.537L531.022 475.709L526.598 476.243C525.791 476.34 525.496 477.358 526.133 477.87L529.599 480.67L528.735 485.046C528.576 485.847 529.456 486.437 530.137 485.994L533.878 483.555L537.781 485.727C538.492 486.123 539.333 485.475 539.117 484.692ZM531.215 480.082L528.07 477.547L532.083 477.065L533.528 473.29L535.234 476.955L539.251 477.157L536.298 479.905L537.347 483.81L533.814 481.847L530.43 484.057L531.215 480.082Z" fill="#FFE38E"/>
</g>
<g opacity="0.7">
<path d="M659.493 484.392L658.882 487.28L656.057 488.091C655.543 488.236 655.458 488.935 655.921 489.201L658.471 490.671L658.361 493.615C658.338 494.151 658.975 494.449 659.374 494.088L661.564 492.11L664.33 493.123C664.834 493.307 665.313 492.797 665.092 492.304L663.891 489.616L665.713 487.298C666.046 486.874 665.705 486.263 665.172 486.32L662.237 486.633L660.59 484.183C660.29 483.736 659.601 483.866 659.493 484.392ZM662.763 489.477L663.854 491.914L661.346 490.993L659.363 492.783L659.458 490.112L657.153 488.789L659.717 488.056L660.271 485.442L661.762 487.658L664.418 487.372L662.763 489.477Z" fill="#FFE38E"/>
</g>
<g opacity="0.93">
<path d="M783.866 480.696L784.611 477.915L781.83 477.17L782.078 476.243L784.859 476.988L785.604 474.208L786.531 474.456L785.786 477.237L788.567 477.982L788.318 478.909L785.538 478.164L784.793 480.944L783.866 480.696Z" fill="#D9F1FF"/>
</g>
<g opacity="0.85">
<path d="M1106.65 538.403C1105.92 534.266 1101.99 531.511 1097.85 532.241C1093.71 532.97 1090.96 536.904 1091.69 541.041C1092.42 545.178 1096.35 547.933 1100.49 547.203C1104.62 546.474 1107.38 542.54 1106.65 538.403ZM1093.18 540.777C1092.6 537.471 1094.81 534.32 1098.11 533.737C1101.42 533.154 1104.57 535.36 1105.15 538.667C1105.74 541.973 1103.53 545.124 1100.22 545.707C1096.92 546.29 1093.77 544.084 1093.18 540.777Z" fill="#F5C4DA"/>
</g>
<g opacity="0.8">
<path d="M1202.68 497.372L1203.34 501.515L1200 504.029C1199.39 504.483 1199.64 505.455 1200.39 505.571L1204.52 506.223L1205.87 510.185C1206.11 510.907 1207.11 510.979 1207.46 510.297L1209.35 506.557L1213.54 506.492C1214.3 506.48 1214.68 505.559 1214.13 505.018L1211.17 502.063L1212.41 498.061C1212.63 497.328 1211.87 496.691 1211.19 497.038L1207.46 498.948L1204.03 496.537C1203.4 496.097 1202.55 496.62 1202.68 497.372ZM1209.6 502.454L1212.29 505.13L1208.5 505.186L1206.78 508.57L1205.54 504.979L1201.81 504.397L1204.84 502.12L1204.24 498.37L1207.35 500.55L1210.73 498.818L1209.6 502.454Z" fill="#FFE38E"/>
</g>
<g opacity="0.75" clip-path="url(#clip14_14_29)">
<path d="M1420.36 555.853C1418.4 551.839 1413.57 550.177 1409.56 552.134C1405.54 554.092 1403.88 558.92 1405.84 562.934C1407.8 566.949 1412.62 568.611 1416.64 566.653C1420.65 564.695 1422.31 559.867 1420.36 555.853ZM1407.29 562.226C1405.72 559.018 1407.06 555.151 1410.26 553.586C1413.47 552.021 1417.34 553.353 1418.9 556.561C1420.47 559.77 1419.14 563.636 1415.93 565.201C1412.72 566.766 1408.85 565.435 1407.29 562.226Z" fill="#F5C4DA"/>
</g>
<g opacity="0.76" clip-path="url(#clip15_14_29)">
<path d="M61.4277 653.01C58.597 653.509 56.7123 656.201 57.2114 659.031C57.7106 661.862 60.4021 663.747 63.2329 663.248C66.0636 662.749 67.9483 660.057 67.4491 657.226C66.95 654.396 64.2584 652.511 61.4277 653.01ZM63.0524 662.224C60.7898 662.623 58.6341 661.113 58.2352 658.851C57.8363 656.588 59.3457 654.433 61.6082 654.034C63.8707 653.635 66.0264 655.144 66.4254 657.407C66.8243 659.669 65.3149 661.825 63.0524 662.224Z" fill="#F5C4DA"/>
</g>
<g opacity="0.84" clip-path="url(#clip16_14_29)">
<path d="M307.694 687.427C303.831 684.62 298.438 685.474 295.631 689.338C292.824 693.201 293.678 698.594 297.542 701.401C301.406 704.208 306.798 703.354 309.605 699.49C312.412 695.626 311.558 690.234 307.694 687.427ZM298.557 700.004C295.469 697.76 294.785 693.441 297.029 690.353C299.272 687.265 303.591 686.581 306.679 688.824C309.767 691.068 310.451 695.387 308.208 698.475C305.964 701.563 301.645 702.247 298.557 700.004Z" fill="#F5C4DA"/>
</g>
<g opacity="0.73">
<path d="M425.598 642.276L428.436 638.894L425.054 636.057L426 634.93L429.381 637.767L432.219 634.386L433.346 635.332L430.508 638.713L433.89 641.551L432.944 642.678L429.563 639.84L426.725 643.222L425.598 642.276Z" fill="#D9F1FF"/>
</g>
<g opacity="0.91">
<path d="M584.881 645.655L586.68 642.657L590.155 642.838C590.786 642.874 591.152 642.124 590.735 641.648L588.446 639.018L589.705 635.765C589.937 635.173 589.339 634.594 588.753 634.844L585.538 636.215L582.832 634.014C582.339 633.613 581.605 634 581.663 634.637L581.971 638.11L579.038 640.003C578.501 640.349 578.647 641.165 579.267 641.307L582.673 642.088L583.572 645.465C583.736 646.082 584.558 646.202 584.881 645.655ZM583.181 638.7L582.899 635.552L585.352 637.549L588.262 636.31L587.126 639.263L589.196 641.634L586.044 641.466L584.416 644.179L583.6 641.123L580.516 640.42L583.181 638.7Z" fill="#FFE38E"/>
</g>
<g opacity="0.89">
<path d="M898.125 573.458L897.117 576.561L900.22 577.569L899.884 578.603L896.781 577.595L895.773 580.698L894.739 580.362L895.747 577.259L892.644 576.251L892.98 575.217L896.083 576.225L897.091 573.122L898.125 573.458Z" fill="#D9F1FF"/>
</g>
<g opacity="0.81" clip-path="url(#clip17_14_29)">
<path d="M1166.11 591.374L1163.11 588.166L1164.53 584.035C1164.8 583.285 1164.02 582.584 1163.3 582.922L1159.33 584.775L1155.84 582.13C1155.21 581.644 1154.3 582.165 1154.4 582.96L1154.94 587.315L1151.35 589.819C1150.7 590.276 1150.91 591.295 1151.7 591.445L1156 592.276L1157.27 596.47C1157.5 597.239 1158.53 597.344 1158.92 596.646L1161.04 592.805L1165.43 592.888C1166.23 592.904 1166.66 591.954 1166.11 591.374ZM1157.13 591.02L1153.23 590.271L1156.49 588.001L1156 584.06L1159.17 586.453L1162.75 584.775L1161.46 588.522L1164.17 591.425L1160.2 591.352L1158.28 594.83L1157.13 591.02Z" fill="#FFE38E"/>
</g>
<g opacity="0.74">
<path d="M1364.75 637.067L1366.51 634.552L1363.99 632.79L1364.58 631.952L1367.09 633.713L1368.85 631.198L1369.69 631.785L1367.93 634.3L1370.45 636.062L1369.86 636.9L1367.34 635.139L1365.58 637.654L1364.75 637.067Z" fill="#D9F1FF"/>
</g>
<g opacity="0.9">
<path d="M1408.85 684.236L1404.95 681.606L1402.32 685.504L1401.03 684.628L1403.65 680.73L1399.76 678.1L1400.63 676.801L1404.53 679.43L1407.16 675.532L1408.46 676.409L1405.83 680.307L1409.73 682.936L1408.85 684.236Z" fill="#D9F1FF"/>
</g>
<g opacity="0.74">
<path d="M346.237 728.444L344.113 732.8L348.468 734.924L347.76 736.376L343.404 734.251L341.28 738.607L339.828 737.899L341.953 733.543L337.597 731.419L338.305 729.967L342.661 732.092L344.785 727.736L346.237 728.444Z" fill="#D9F1FF"/>
</g>
<g opacity="0.93">
<path d="M456.63 750.676L455.696 753.395L452.871 753.843C452.357 753.922 452.191 754.588 452.607 754.899L454.898 756.623L454.442 759.455C454.356 759.97 454.936 760.334 455.365 760.033L457.716 758.381L460.269 759.688C460.734 759.926 461.257 759.489 461.102 758.987L460.261 756.246L462.296 754.223C462.669 753.852 462.412 753.221 461.889 753.213L459.016 753.167L457.715 750.605C457.478 750.137 456.797 750.181 456.63 750.676ZM459.187 755.979L459.952 758.463L457.638 757.276L455.509 758.77L455.918 756.2L453.847 754.647L456.412 754.244L457.257 751.783L458.435 754.102L461.036 754.14L459.187 755.979Z" fill="#FFE38E"/>
</g>
<g opacity="0.75" clip-path="url(#clip18_14_29)">
<path d="M671.635 730.213L669.903 728.484L670.615 726.154C670.746 725.732 670.298 725.356 669.905 725.558L667.731 726.668L665.734 725.262C665.372 725.004 664.877 725.312 664.947 725.753L665.334 728.168L663.381 729.634C663.025 729.901 663.164 730.464 663.606 730.533L666.017 730.912L666.806 733.225C666.951 733.648 667.53 733.687 667.731 733.29L668.838 731.109L671.284 731.07C671.731 731.063 671.952 730.525 671.635 730.213ZM666.623 730.19L664.437 729.849L666.209 728.521L665.86 726.334L667.674 727.606L669.635 726.601L668.986 728.714L670.554 730.279L668.34 730.315L667.34 732.291L666.623 730.19Z" fill="#FFE38E"/>
</g>
<g opacity="0.76">
<path d="M922.157 791.913L923.439 787.43L927.977 786.465C928.802 786.293 929.014 785.2 928.314 784.732L924.458 782.135L924.957 777.51C925.052 776.668 924.082 776.128 923.413 776.653L919.745 779.527L915.5 777.627C914.727 777.281 913.916 778.033 914.21 778.833L915.805 783.2L912.681 786.649C912.109 787.281 912.579 788.281 913.426 788.25L918.083 788.08L920.406 792.12C920.83 792.857 921.93 792.729 922.157 791.913ZM917.567 783.542L916.117 779.585L919.966 781.31L923.286 778.71L922.842 782.906L926.327 785.245L922.209 786.116L921.049 790.172L918.944 786.517L914.729 786.676L917.567 783.542Z" fill="#FFE38E"/>
</g>
<g opacity="0.8">
<path d="M1091.54 742.488L1087.63 740.906L1086.05 744.821L1084.74 744.294L1086.32 740.379L1082.41 738.798L1082.93 737.493L1086.85 739.074L1088.43 735.159L1089.74 735.687L1088.15 739.602L1092.07 741.183L1091.54 742.488Z" fill="#D9F1FF"/>
</g>
<g opacity="0.92">
<path d="M1227.28 706.44L1230.82 705.082L1229.46 701.543L1230.64 701.09L1232 704.629L1235.54 703.27L1235.99 704.45L1232.45 705.808L1233.81 709.347L1232.63 709.8L1231.27 706.261L1227.73 707.62L1227.28 706.44Z" fill="#D9F1FF"/>
</g>
<g opacity="0.93" clip-path="url(#clip19_14_29)">
<path d="M1522 707.516L1521.52 704.8L1523.69 703.11C1524.08 702.804 1523.91 702.168 1523.42 702.101L1520.69 701.72L1519.76 699.131C1519.59 698.659 1518.93 698.623 1518.71 699.076L1517.51 701.556L1514.76 701.646C1514.26 701.663 1514.02 702.273 1514.39 702.622L1516.37 704.53L1515.6 707.175C1515.46 707.659 1515.97 708.07 1516.41 707.833L1518.84 706.535L1521.13 708.081C1521.54 708.363 1522.09 708.009 1522 707.516ZM1517.39 704.256L1515.59 702.527L1518.09 702.447L1519.18 700.203L1520.03 702.549L1522.49 702.889L1520.53 704.42L1520.96 706.878L1518.9 705.481L1516.7 706.658L1517.39 704.256Z" fill="#FFE38E"/>
</g>
<g opacity="0.89" clip-path="url(#clip20_14_29)">
<path d="M-2.85209 826.437C-4.71917 830.102 -3.2664 834.573 0.397944 836.44C4.06229 838.307 8.53345 836.854 10.4005 833.19C12.2676 829.525 10.8148 825.054 7.15049 823.187C3.48614 821.32 -0.985012 822.773 -2.85209 826.437ZM9.07526 832.514C7.58295 835.443 4.00203 836.607 1.0732 835.114C-1.85563 833.622 -3.01914 830.041 -1.52683 827.112C-0.0345171 824.184 3.54641 823.02 6.47523 824.512C9.40406 826.005 10.5676 829.586 9.07526 832.514Z" fill="#F5C4DA"/>
</g>
<g opacity="0.92" clip-path="url(#clip21_14_29)">
<path d="M159.502 837.765C158.734 833.815 154.921 831.243 150.97 832.01C147.02 832.778 144.448 836.592 145.216 840.542C145.983 844.492 149.797 847.065 153.747 846.297C157.698 845.529 160.27 841.715 159.502 837.765ZM146.644 840.264C146.031 837.107 148.091 834.053 151.248 833.439C154.405 832.825 157.46 834.886 158.073 838.043C158.687 841.2 156.627 844.255 153.47 844.868C150.312 845.482 147.258 843.422 146.644 840.264Z" fill="#F5C4DA"/>
</g>
<g opacity="0.72">
<path d="M478.913 890.926L482.93 891.632L484.186 895.492C484.411 896.195 485.381 896.28 485.725 895.627L487.632 892.035L491.702 892.045C492.443 892.051 492.825 891.157 492.307 890.623L489.47 887.695L490.735 883.827C490.966 883.122 490.237 882.485 489.568 882.815L485.914 884.602L482.626 882.199C482.024 881.758 481.197 882.259 481.301 882.993L481.875 887.03L478.572 889.421C477.97 889.858 478.182 890.803 478.913 890.926ZM485.777 886.166L489.088 884.543L487.939 888.049L490.505 890.701L486.813 890.699L485.096 893.945L483.962 890.441L480.326 889.802L483.314 887.636L482.79 883.983L485.777 886.166Z" fill="#FFE38E"/>
</g>
<g opacity="0.81">
<path d="M678.059 852.581L674.083 850.555L672.057 854.531L670.732 853.856L672.757 849.88L668.782 847.854L669.457 846.529L673.433 848.555L675.458 844.579L676.784 845.254L674.758 849.23L678.734 851.256L678.059 852.581Z" fill="#D9F1FF"/>
</g>
<g opacity="0.97">
<path d="M846.779 885.319L846.04 889.528L841.996 890.843C841.26 891.079 841.171 892.095 841.855 892.455L845.618 894.453L845.607 898.717C845.601 899.494 846.537 899.894 847.097 899.351L850.165 896.379L854.216 897.705C854.955 897.946 855.622 897.183 855.277 896.482L853.404 892.654L855.922 889.209C856.383 888.579 855.859 887.712 855.09 887.821L850.861 888.422L848.356 884.962C847.899 884.331 846.908 884.553 846.779 885.319ZM851.766 892.51L853.467 895.979L849.793 894.775L847.015 897.463L847.017 893.596L843.616 891.797L847.288 890.608L847.956 886.799L850.226 889.93L854.053 889.381L851.766 892.51Z" fill="#FFE38E"/>
</g>
<g opacity="0.71">
<path d="M1013.43 817.416L1012.67 819.744L1010.27 820.167C1009.84 820.242 1009.71 820.812 1010.07 821.07L1012.04 822.504L1011.7 824.921C1011.63 825.361 1012.13 825.662 1012.49 825.399L1014.47 823.958L1016.66 825.033C1017.06 825.229 1017.5 824.849 1017.36 824.424L1016.6 822.103L1018.3 820.351C1018.62 820.03 1018.39 819.496 1017.94 819.497L1015.5 819.501L1014.35 817.339C1014.14 816.944 1013.56 816.991 1013.43 817.416ZM1015.68 821.891L1016.37 823.994L1014.38 823.019L1012.59 824.322L1012.9 822.129L1011.12 820.838L1013.29 820.456L1013.98 818.349L1015.02 820.305L1017.23 820.299L1015.68 821.891Z" fill="#FFE38E"/>
</g>
<g opacity="0.74">
<path d="M1359.02 856.732L1360.47 853.466L1364.02 853.217C1364.66 853.175 1364.94 852.368 1364.46 851.937L1361.81 849.554L1362.68 846.096C1362.84 845.467 1362.17 844.954 1361.6 845.281L1358.51 847.072L1355.49 845.176C1354.94 844.831 1354.24 845.315 1354.38 845.954L1355.13 849.44L1352.39 851.725C1351.89 852.144 1352.14 852.953 1352.78 853.02L1356.34 853.388L1357.67 856.703C1357.91 857.308 1358.76 857.328 1359.02 856.732ZM1356.43 849.887L1355.75 846.728L1358.49 848.449L1361.29 846.829L1360.5 849.967L1362.9 852.115L1359.68 852.337L1358.36 855.293L1357.16 852.293L1353.94 851.964L1356.43 849.887Z" fill="#FFE38E"/>
</g>
<g opacity="0.77">
<path d="M93.9996 896.711L99.2472 898.416L100.952 893.168L102.701 893.737L100.996 898.984L106.244 900.689L105.676 902.439L100.428 900.733L98.723 905.981L96.9738 905.413L98.6789 900.165L93.4312 898.46L93.9996 896.711Z" fill="#D9F1FF"/>
</g>
<g opacity="0.81" clip-path="url(#clip22_14_29)">
<path d="M352.385 946.299L350.286 943.801L351.502 940.789C351.725 940.243 351.174 939.692 350.628 939.915L347.612 941.136L345.123 939.037C344.671 938.652 343.978 939.003 344.021 939.597L344.254 942.851L341.489 944.57C340.986 944.884 341.104 945.648 341.684 945.791L344.842 946.575L345.621 949.738C345.764 950.317 346.529 950.436 346.842 949.933L348.566 947.164L351.82 947.396C352.414 947.439 352.77 946.75 352.385 946.299ZM345.731 945.686L342.867 944.979L345.374 943.421L345.165 940.476L347.426 942.376L350.148 941.269L349.041 944L350.941 946.261L347.996 946.052L346.438 948.56L345.731 945.686Z" fill="#FFE38E"/>
</g>
<g opacity="0.77" clip-path="url(#clip23_14_29)">
<path d="M569.55 921.704L567.565 923.202L565.322 922.157C564.916 921.965 564.474 922.362 564.623 922.787L565.431 925.13L563.734 926.94C563.424 927.268 563.664 927.81 564.117 927.801L566.602 927.754L567.8 929.926C568.018 930.321 568.605 930.261 568.736 929.826L569.459 927.454L571.896 926.988C572.343 926.902 572.464 926.325 572.093 926.067L570.055 924.644L570.362 922.178C570.418 921.728 569.908 921.429 569.55 921.704ZM568.818 926.743L568.166 928.894L567.08 926.924L564.831 926.965L566.367 925.321L565.633 923.206L567.667 924.157L569.463 922.801L569.187 925.034L571.033 926.319L568.818 926.743Z" fill="#FFE38E"/>
</g>
<g opacity="0.85">
<path d="M738.13 924.928L734.633 924.311L734.017 927.808L732.851 927.602L733.468 924.105L729.971 923.489L730.177 922.323L733.673 922.94L734.29 919.443L735.455 919.649L734.839 923.145L738.335 923.762L738.13 924.928Z" fill="#D9F1FF"/>
</g>
<g opacity="0.76">
<path d="M969.185 939.078L968.978 942.045L971.945 942.253L971.876 943.242L968.909 943.035L968.701 946.002L967.712 945.933L967.92 942.965L964.952 942.758L965.021 941.769L967.989 941.976L968.196 939.009L969.185 939.078Z" fill="#D9F1FF"/>
</g>
<g opacity="0.85">
<path d="M1082.88 962.483L1082.88 959.492L1085.51 958.094C1085.98 957.842 1085.92 957.13 1085.41 956.965L1082.57 956.045L1082.06 953.104C1081.97 952.568 1081.27 952.407 1080.95 952.849L1079.2 955.27L1076.25 954.849C1075.71 954.772 1075.34 955.379 1075.66 955.821L1077.42 958.232L1076.1 960.913C1075.86 961.404 1076.33 961.938 1076.85 961.769L1079.69 960.84L1081.84 962.921C1082.23 963.3 1082.88 963.027 1082.88 962.483ZM1078.57 958.132L1076.97 955.947L1079.65 956.331L1081.24 954.14L1081.71 956.806L1084.27 957.633L1081.89 958.899L1081.89 961.606L1079.94 959.724L1077.37 960.567L1078.57 958.132Z" fill="#FFE38E"/>
</g>
<g opacity="0.74" clip-path="url(#clip24_14_29)">
<path d="M1341.51 915.497C1336.79 917.124 1334.28 922.258 1335.91 926.983C1337.54 931.708 1342.67 934.212 1347.4 932.585C1352.12 930.958 1354.63 925.824 1353 921.099C1351.37 916.374 1346.24 913.87 1341.51 915.497ZM1346.81 930.876C1343.03 932.176 1338.92 930.171 1337.62 926.394C1336.32 922.618 1338.32 918.506 1342.1 917.206C1345.88 915.905 1349.99 917.911 1351.29 921.687C1352.59 925.464 1350.58 929.576 1346.81 930.876Z" fill="#F5C4DA"/>
</g>
<g opacity="0.95" clip-path="url(#clip25_14_29)">
<path d="M1571.46 971.193L1570.63 968.482L1572.62 966.486C1572.99 966.125 1572.73 965.497 1572.22 965.49L1569.39 965.442L1568.11 962.918C1567.88 962.457 1567.21 962.503 1567.04 962.992L1566.12 965.674L1563.33 966.111C1562.82 966.19 1562.65 966.842 1563.07 967.153L1565.33 968.853L1564.88 971.648C1564.8 972.16 1565.37 972.514 1565.79 972.218L1568.11 970.588L1570.63 971.879C1571.09 972.115 1571.61 971.685 1571.46 971.193ZM1566.34 968.444L1564.29 966.905L1566.83 966.51L1567.66 964.084L1568.82 966.371L1571.38 966.41L1569.56 968.219L1570.32 970.673L1568.03 969.506L1565.93 970.983L1566.34 968.444Z" fill="#FFE38E"/>
</g>
<defs>
<clipPath id="clip0_14_29">
<rect width="13.8182" height="13.8182" fill="white" transform="translate(188.052 217.892) rotate(140)"/>
</clipPath>
<clipPath id="clip1_14_29">
<rect width="19.7677" height="19.7677" fill="white" transform="translate(1162.22 199.66) rotate(-110)"/>
</clipPath>
<clipPath id="clip2_14_29">
<rect width="12.2828" height="12.2828" fill="white" transform="translate(1295.17 213.094) rotate(92)"/>
</clipPath>
<clipPath id="clip3_14_29">
<rect width="22.8384" height="22.8384" fill="white" transform="translate(1498.16 191.983) rotate(-80)"/>
</clipPath>
<clipPath id="clip4_14_29">
<rect width="20.5354" height="20.5354" fill="white" transform="translate(485.091 248.719) rotate(45)"/>
</clipPath>
<clipPath id="clip5_14_29">
<rect width="19.1919" height="19.1919" fill="white" transform="translate(728.393 250.638) rotate(141)"/>
</clipPath>
<clipPath id="clip6_14_29">
<rect width="17.4647" height="17.4647" fill="white" transform="translate(930.432 337.002) rotate(-28)"/>
</clipPath>
<clipPath id="clip7_14_29">
<rect width="22.0707" height="22.0707" fill="white" transform="translate(1080.65 291.901) rotate(142)"/>
</clipPath>
<clipPath id="clip8_14_29">
<rect width="13.2424" height="13.2424" fill="white" transform="translate(1427.15 303.416) rotate(67)"/>
</clipPath>
<clipPath id="clip9_14_29">
<rect width="15.1616" height="15.1616" fill="white" transform="translate(45.5086 427.324) rotate(-26)"/>
</clipPath>
<clipPath id="clip10_14_29">
<rect width="14.394" height="14.394" fill="white" transform="translate(178.456 449.395) rotate(-161)"/>
</clipPath>
<clipPath id="clip11_14_29">
<rect width="18.2323" height="18.2323" fill="white" transform="translate(922.755 388.94) rotate(8)"/>
</clipPath>
<clipPath id="clip12_14_29">
<rect width="15.1616" height="15.1616" fill="white" transform="translate(1146.86 357.273) rotate(56)"/>
</clipPath>
<clipPath id="clip13_14_29">
<rect width="22.0707" height="22.0707" fill="white" transform="translate(540.748 464.868) rotate(70)"/>
</clipPath>
<clipPath id="clip14_14_29">
<rect width="19.3839" height="19.3839" fill="white" transform="translate(1417.56 546.434) rotate(64)"/>
</clipPath>
<clipPath id="clip15_14_29">
<rect width="12.4748" height="12.4748" fill="white" transform="translate(55.1046 653.069) rotate(-10)"/>
</clipPath>
<clipPath id="clip16_14_29">
<rect width="20.7273" height="20.7273" fill="white" transform="translate(300.325 679.938) rotate(36)"/>
</clipPath>
<clipPath id="clip17_14_29">
<rect width="21.6869" height="21.6869" fill="white" transform="translate(1158.38 573.423) rotate(42)"/>
</clipPath>
<clipPath id="clip18_14_29">
<rect width="12.0909" height="12.0909" fill="white" transform="translate(666.979 720.361) rotate(40)"/>
</clipPath>
<clipPath id="clip19_14_29">
<rect width="13.6263" height="13.6263" fill="white" transform="translate(1524.07 695.411) rotate(75)"/>
</clipPath>
<clipPath id="clip20_14_29">
<rect width="17.8485" height="17.8485" fill="white" transform="translate(-8.22888 833.714) rotate(-63)"/>
</clipPath>
<clipPath id="clip21_14_29">
<rect width="17.4647" height="17.4647" fill="white" transform="translate(159.265 828.916) rotate(79)"/>
</clipPath>
<clipPath id="clip22_14_29">
<rect width="16.1212" height="16.1212" fill="white" transform="translate(347.346 932.672) rotate(45)"/>
</clipPath>
<clipPath id="clip23_14_29">
<rect width="12.2828" height="12.2828" fill="white" transform="translate(558.98 924.995) rotate(-42)"/>
</clipPath>
<clipPath id="clip24_14_29">
<rect width="21.6869" height="21.6869" fill="white" transform="translate(1330.67 917.318) rotate(-19)"/>
</clipPath>
<clipPath id="clip25_14_29">
<rect width="14.0101" height="14.0101" fill="white" transform="translate(1572.05 958.581) rotate(68)"/>
</clipPath>
</defs>
</svg>
