<svg width="70" height="70" viewBox="0 0 70 70" fill="none" xmlns="http://www.w3.org/2000/svg">
<path d="M25.2591 56.3325C45.0713 56.3325 55.9059 39.9197 55.9059 25.6856C55.9059 25.2197 55.9059 24.7559 55.8753 24.2944C57.9839 22.7689 59.8039 20.88 61.25 18.7162C59.2844 19.5883 57.1991 20.1605 55.0638 20.4137C57.3117 19.0669 58.994 16.9493 59.7975 14.455C57.6836 15.7094 55.371 16.5935 52.9594 17.069C51.3353 15.3421 49.1873 14.1986 46.8478 13.8154C44.5083 13.4322 42.1077 13.8307 40.0175 14.9493C37.9274 16.0678 36.2641 17.8441 35.2851 20.0032C34.3061 22.1623 34.066 24.5838 34.6019 26.8931C30.3196 26.6785 26.1304 25.5658 22.306 23.6272C18.4817 21.6887 15.1077 18.9676 12.4031 15.6406C11.0261 18.012 10.6045 20.8191 11.2243 23.4903C11.844 26.1616 13.4585 28.4963 15.7391 30.019C14.0247 29.9679 12.3478 29.5049 10.85 28.6694V28.8072C10.8507 31.2939 11.7114 33.7039 13.2863 35.6284C14.8611 37.5529 17.0532 38.8735 19.4906 39.3662C17.905 39.7982 16.2415 39.861 14.6278 39.55C15.316 41.6903 16.6559 43.5619 18.4601 44.9033C20.2642 46.2447 22.4425 46.9887 24.6903 47.0312C22.4569 48.786 19.8995 50.0833 17.1643 50.8491C14.4292 51.6148 11.5699 51.8338 8.75 51.4937C13.6753 54.6554 19.4063 56.3329 25.2591 56.3259" fill="#6B85B2"/>
</svg>
